0
SECTION
2
HEADER
9
$INSUNITS
70
4
0
ENDSEC
0
SECTION
2
TABLES
0
TABLE
2
LTYPE
0
LTYPE
72
65
70
64
2
CONTINUOUS
3
______
73
0
40
0
0
ENDTAB
0
TABLE
2
LAYER
0
ENDTAB
0
ENDSEC
0
SECTION
2
ENTITIES
0
LINE
8
front_outsideCutPath
10
0
20
104
11
0
21
68.125
0
LINE
8
front_outsideCutPath
10
0
20
68.125
11
3
21
68.125
0
LINE
8
front_outsideCutPath
10
3
20
68.125
11
3
21
38.875
0
LINE
8
front_outsideCutPath
10
3
20
38.875
11
0
21
38.875
0
LINE
8
front_outsideCutPath
10
0
20
38.875
11
0
21
9.625
0
LINE
8
front_outsideCutPath
10
0
20
9.625
11
0
21
3
0
LINE
8
front_outsideCutPath
10
0
20
3
11
19.125
21
3
0
LINE
8
front_outsideCutPath
10
19.125
20
3
11
19.125
21
6
0
LINE
8
front_outsideCutPath
10
19.125
20
6
11
48.375
21
6
0
LINE
8
front_outsideCutPath
10
48.375
20
6
11
48.375
21
3
0
LINE
8
front_outsideCutPath
10
48.375
20
3
11
77.625
21
3
0
LINE
8
front_outsideCutPath
10
77.625
20
3
11
77.625
21
6
0
LINE
8
front_outsideCutPath
10
77.625
20
6
11
106.875
21
6
0
LINE
8
front_outsideCutPath
10
106.875
20
6
11
106.875
21
3
0
LINE
8
front_outsideCutPath
10
106.875
20
3
11
126
21
3
0
LINE
8
front_outsideCutPath
10
126
20
3
11
126
21
38.875
0
LINE
8
front_outsideCutPath
10
126
20
38.875
11
123
21
38.875
0
LINE
8
front_outsideCutPath
10
123
20
38.875
11
123
21
68.125
0
LINE
8
front_outsideCutPath
10
123
20
68.125
11
126
21
68.125
0
LINE
8
front_outsideCutPath
10
126
20
68.125
11
126
21
97.375
0
LINE
8
front_outsideCutPath
10
126
20
97.375
11
126
21
104
0
LINE
8
front_outsideCutPath
10
126
20
104
11
106.875
21
104
0
LINE
8
front_outsideCutPath
10
106.875
20
104
11
106.875
21
101
0
LINE
8
front_outsideCutPath
10
106.875
20
101
11
77.625
21
101
0
LINE
8
front_outsideCutPath
10
77.625
20
101
11
77.625
21
104
0
LINE
8
front_outsideCutPath
10
77.625
20
104
11
48.375
21
104
0
LINE
8
front_outsideCutPath
10
48.375
20
104
11
48.375
21
101
0
LINE
8
front_outsideCutPath
10
48.375
20
101
11
19.125
21
101
0
LINE
8
front_outsideCutPath
10
19.125
20
101
11
19.125
21
104
0
LINE
8
front_outsideCutPath
10
19.125
20
104
11
0
21
104
0
LINE
8
front_labelLayer
10
46.2669434
20
56.6811221
11
46.2669434
21
55.4087589
0
LINE
8
front_labelLayer
10
46.2669434
20
55.4087589
11
43.5150879
21
55.4087589
0
LINE
8
front_labelLayer
10
43.5150879
20
55.4087589
11
43.5150879
21
45.8709659
0
LINE
8
front_labelLayer
10
43.5150879
20
45.8709659
11
41.8777832
21
45.8709659
0
LINE
8
front_labelLayer
10
41.8777832
20
45.8709659
11
41.8777832
21
55.4087589
0
LINE
8
front_labelLayer
10
41.8777832
20
55.4087589
11
39.9445801
21
55.4087589
0
LINE
8
front_labelLayer
10
39.9445801
20
55.4087589
11
39.9445801
21
56.148505
0
LINE
8
front_labelLayer
10
39.9445801
20
56.148505
11
41.8777832
21
56.7403018
0
LINE
8
front_labelLayer
10
41.8777832
20
56.7403018
11
41.8777832
21
57.341962
0
LINE
8
front_labelLayer
10
47.3716309
20
60.9815128
11
46.9475098
21
59.6696964
0
LINE
8
front_labelLayer
10
43.5150879
20
57.3814151
11
43.5150879
21
56.6811221
0
LINE
8
front_labelLayer
10
43.5150879
20
56.6811221
11
46.2669434
21
56.6811221
0
ARC
8
front_labelLayer
10
48.513204
20
57.4182471
40
6.6358593
50
167.5775988
51
180.6586804
0
ARC
8
front_labelLayer
10
45.3928093
20
58.1457418
40
3.4322459
50
141.7433968
51
168.2321991
0
ARC
8
front_labelLayer
10
44.884743
20
58.4109136
40
2.8710695
50
98.2551581
51
139.6203296
0
ARC
8
front_labelLayer
10
45.33083
20
56.350157
40
4.9766532
50
89.6696756
51
99.9314228
0
ARC
8
front_labelLayer
10
45.332077
20
56.0543084
40
5.2724906
50
81.5640934
51
89.7017613
0
ARC
8
front_labelLayer
10
44.961403
20
53.4682881
40
7.8849208
50
75.9740123
51
81.6564749
0
ARC
8
front_labelLayer
10
44.3252609
20
50.8297538
40
10.5989895
50
73.2963946
51
76.0945842
0
ARC
8
front_labelLayer
10
44.4855037
20
52.1097809
40
7.9507104
50
71.9613411
51
76.5918318
0
ARC
8
front_labelLayer
10
45.102334
20
54.7264371
40
5.2623466
50
76.518336
51
83.021702
0
ARC
8
front_labelLayer
10
45.3171895
20
56.4542725
40
3.5212087
50
83.0761035
51
89.7926641
0
ARC
8
front_labelLayer
10
45.3101198
20
57.7674693
40
2.2080776
50
89.4859102
51
103.419772
0
ARC
8
front_labelLayer
10
45.1110458
20
58.5322868
40
1.418033
50
102.767745
51
144.3380299
0
ARC
8
front_labelLayer
10
45.5120999
20
58.2742458
40
1.8944703
50
145.068875
51
162.1801745
0
ARC
8
front_labelLayer
10
46.887173
20
57.8116014
40
3.3452106
50
161.8437517
51
171.7846802
0
ARC
8
front_labelLayer
10
49.1299088
20
57.4747481
40
5.6130806
50
171.652758
51
178.4383658
0
ARC
8
front_labelLayer
10
51.2453425
20
57.3845474
40
7.7302551
50
178.1973538
51
180.023216
0
LINE
8
front_labelLayer
10
54.4633301
20
56.7600284
11
54.2364746
21
55.2410831
0
LINE
8
front_labelLayer
10
49.8769043
20
51.6705753
11
49.8769043
21
45.8709659
0
LINE
8
front_labelLayer
10
49.8769043
20
45.8709659
11
48.2395996
21
45.8709659
0
LINE
8
front_labelLayer
10
48.2395996
20
45.8709659
11
48.2395996
21
56.6811221
0
LINE
8
front_labelLayer
10
48.2395996
20
56.6811221
11
49.5908691
21
56.6811221
0
LINE
8
front_labelLayer
10
49.5908691
20
56.6811221
11
49.7782715
21
54.6788761
0
LINE
8
front_labelLayer
10
49.7782715
20
54.6788761
11
49.8571777
21
54.6788761
0
ARC
8
front_labelLayer
10
53.188048
20
49.3617986
40
7.5166079
50
84.9923064
51
90.1281181
0
ARC
8
front_labelLayer
10
53.3685636
20
51.3842791
40
5.486091
50
78.4891726
51
85.0266167
0
ARC
8
front_labelLayer
10
52.667906
20
48.1975
40
7.2161257
50
77.4453979
51
81.6360027
0
ARC
8
front_labelLayer
10
52.9823174
20
50.3646723
40
5.0262706
50
81.5884387
51
87.1916735
0
ARC
8
front_labelLayer
10
53.0506053
20
51.548982
40
3.840051
50
87.3435756
51
89.966047
0
ARC
8
front_labelLayer
10
53.0347358
20
52.5521258
40
2.8369645
50
89.6335361
51
137.0880754
0
ARC
8
front_labelLayer
10
53.7310294
20
51.7691354
40
3.8813203
50
135.6209432
51
138.8377033
0
ARC
8
front_labelLayer
10
53.6289577
20
51.8687643
40
3.7389089
50
138.9575766
51
174.542224
0
ARC
8
front_labelLayer
10
54.8466116
20
51.6782339
40
4.9697132
50
173.6907421
51
180.0882962
0
ARC
8
front_labelLayer
10
54.6744843
20
51.9648258
40
5.5292414
50
139.4139356
51
150.6032724
0
ARC
8
front_labelLayer
10
53.6830802
20
52.8143552
40
4.223645
50
124.2321448
51
139.4161149
0
ARC
8
front_labelLayer
10
53.152992
20
53.6145214
40
3.2639174
50
89.6796641
51
124.4405671
0
ARC
8
front_labelLayer
10
57.3588125
20
51.2288909
40
8.4573465
50
349.1761949
51
0.3862708
0
ARC
8
front_labelLayer
10
60.2061963
20
50.6612601
40
5.5540713
50
330.250715
51
349.4116447
0
ARC
8
front_labelLayer
10
61.0824674
20
50.2058124
40
4.5674623
50
318.1440012
51
329.7566036
0
ARC
8
front_labelLayer
10
61.2406386
20
50.079055
40
4.3650865
50
278.8959176
51
317.9979166
0
ARC
8
front_labelLayer
10
60.8331283
20
52.0314719
40
6.3578321
50
269.7502959
51
279.8033272
0
ARC
8
front_labelLayer
10
60.7670399
20
50.931406
40
5.2578458
50
253.54369
51
270.4182381
0
ARC
8
front_labelLayer
10
60.5920141
20
50.2543663
40
4.5590214
50
238.8115429
51
253.2428402
0
ARC
8
front_labelLayer
10
60.5355293
20
50.1407773
40
4.4326111
50
207.7946971
51
238.6757983
0
ARC
8
front_labelLayer
10
61.3458947
20
50.6371036
40
5.3812671
50
205.6559555
51
208.4461637
0
ARC
8
front_labelLayer
10
61.9703795
20
50.8973221
40
6.0569558
50
188.9102519
51
205.3171397
0
ARC
8
front_labelLayer
10
64.0743404
20
51.2536653
40
8.1907612
50
179.7744611
51
189.0932909
0
ARC
8
front_labelLayer
10
64.38472
20
51.3434879
40
8.5012724
50
169.2442976
51
180.3880771
0
ARC
8
front_labelLayer
10
61.4977561
20
51.9141355
40
5.5585749
50
150.7111531
51
169.4695399
0
ARC
8
front_labelLayer
10
60.5761374
20
52.3874222
40
4.5233942
50
138.1759355
51
150.2287581
0
ARC
8
front_labelLayer
10
60.4228417
20
52.5050588
40
4.3307378
50
99.1759299
51
137.9832772
0
ARC
8
front_labelLayer
10
60.8447898
20
50.5193276
40
6.3591295
50
89.7326442
51
100.0759848
0
ARC
8
front_labelLayer
10
60.9291205
20
51.3768978
40
5.5017615
50
73.522275
51
90.5692184
0
ARC
8
front_labelLayer
10
61.2517675
20
52.5491581
40
4.2861917
50
41.1445627
51
73.2133888
0
ARC
8
front_labelLayer
10
60.6358614
20
52.0197956
40
5.0983052
50
13.5014355
51
41.070337
0
ARC
8
front_labelLayer
10
58.2563233
20
51.3971014
40
7.5576279
50
1.1277247
51
13.8800074
0
ARC
8
front_labelLayer
10
56.2066229
20
51.2872585
40
9.6093441
50
359.9919435
51
1.5420091
0
ARC
8
front_labelLayer
10
65.8712982
20
51.2433587
40
8.2912804
50
179.7059721
51
187.916086
0
ARC
8
front_labelLayer
10
62.8303122
20
50.8065221
40
5.2191287
50
187.7639164
51
200.0976819
0
ARC
8
front_labelLayer
10
61.1550494
20
50.1927041
40
3.4349545
50
200.0845906
51
216.9131559
0
ARC
8
front_labelLayer
10
60.5433005
20
49.7558874
40
2.6835403
50
217.3009605
51
261.709908
0
ARC
8
front_labelLayer
10
60.8272958
20
51.111083
40
4.0664247
50
260.5033122
51
270.2476634
0
ARC
8
front_labelLayer
10
60.8815001
20
50.8475662
40
3.8030462
50
269.4481767
51
284.7255508
0
ARC
8
front_labelLayer
10
61.1825653
20
49.7310083
40
2.6466449
50
284.5662279
51
322.6333885
0
ARC
8
front_labelLayer
10
60.4786554
20
50.2395507
40
3.5148066
50
323.0089484
51
342.6390327
0
ARC
8
front_labelLayer
10
58.4653616
20
50.8975539
40
5.6327907
50
342.3615538
51
353.7537718
0
ARC
8
front_labelLayer
10
55.4950306
20
51.2555903
40
8.6245053
50
353.5363029
51
0.2014076
0
ARC
8
front_labelLayer
10
55.9501067
20
51.3276024
40
8.1694822
50
359.7075749
51
7.8972558
0
ARC
8
front_labelLayer
10
58.9420094
20
51.7565162
40
5.1470414
50
7.7440015
51
20.0690149
0
ARC
8
front_labelLayer
10
60.6092125
20
52.3683167
40
3.3711315
50
20.0257051
51
37.4350635
0
ARC
8
front_labelLayer
10
61.162372
20
52.7608306
40
2.6934172
50
37.9577738
51
80.4006137
0
ARC
8
front_labelLayer
10
60.8480271
20
51.3582447
40
4.1294838
50
79.3453653
51
90.3174651
0
ARC
8
front_labelLayer
10
60.7898239
20
51.5912301
40
3.8965951
50
89.4806077
51
103.8805152
0
ARC
8
front_labelLayer
10
60.4624083
20
52.8380239
40
2.6077313
50
103.4685194
51
142.3118853
0
ARC
8
front_labelLayer
10
61.0989306
20
52.390377
40
3.3852979
50
142.9025831
51
162.3749576
0
ARC
8
front_labelLayer
10
63.104594
20
51.7219932
40
5.4992703
50
162.0652986
51
173.1674916
0
ARC
8
front_labelLayer
10
66.2320023
20
51.323111
40
8.6519554
50
173.0086226
51
180.2463744
0
LINE
8
front_labelLayer
10
77.7209473
20
45.8709659
11
76.0836426
21
45.8709659
0
LINE
8
front_labelLayer
10
76.0836426
20
45.8709659
11
76.0836426
21
52.8640323
0
LINE
8
front_labelLayer
10
70.3234863
20
51.5423526
11
70.3234863
21
45.8709659
0
LINE
8
front_labelLayer
10
70.3234863
20
45.8709659
11
68.6861816
21
45.8709659
0
LINE
8
front_labelLayer
10
68.6861816
20
45.8709659
11
68.6861816
21
56.6811221
0
LINE
8
front_labelLayer
10
68.6861816
20
56.6811221
11
70.0177246
21
56.6811221
0
LINE
8
front_labelLayer
10
70.0177246
20
56.6811221
11
70.2840332
21
55.20163
0
LINE
8
front_labelLayer
10
70.2840332
20
55.20163
11
70.3629395
21
55.20163
0
LINE
8
front_labelLayer
10
77.7209473
20
52.923212
11
77.7209473
21
45.8709659
0
ARC
8
front_labelLayer
10
71.4554763
20
52.890575
40
4.6282424
50
359.67141
51
8.6877344
0
ARC
8
front_labelLayer
10
73.1708212
20
53.1626173
40
2.8915039
50
8.4931602
51
22.657963
0
ARC
8
front_labelLayer
10
74.0423517
20
53.524797
40
1.9477156
50
22.7024375
51
42.341958
0
ARC
8
front_labelLayer
10
74.1403142
20
53.5688628
40
1.8459295
50
43.3790976
51
71.5385918
0
ARC
8
front_labelLayer
10
73.7739816
20
52.5452327
40
2.9329784
50
71.0828076
51
84.3691061
0
ARC
8
front_labelLayer
10
73.6095417
20
51.1471144
40
4.3405658
50
84.0197802
51
90.1510875
0
ARC
8
front_labelLayer
10
73.5629223
20
50.5324278
40
4.9553621
50
89.5933087
51
100.3718005
0
ARC
8
front_labelLayer
10
73.2127304
20
52.3697628
40
3.0850325
50
100.117636
51
118.1602454
0
ARC
8
front_labelLayer
10
72.8598272
20
53.0617793
40
2.3084319
50
118.5439499
51
139.1926644
0
ARC
8
front_labelLayer
10
73.1675407
20
52.8553015
40
2.6766557
50
140.1519169
51
160.3146334
0
ARC
8
front_labelLayer
10
75.0257178
20
52.1593073
40
4.6607762
50
159.9534318
51
171.3801051
0
ARC
8
front_labelLayer
10
78.0611112
20
51.6713799
40
7.7350615
50
171.1765871
51
178.3217455
0
ARC
8
front_labelLayer
10
80.8128264
20
51.5466776
40
10.4893411
50
178.0810788
51
180.0236245
0
ARC
8
front_labelLayer
10
73.1637992
20
53.4277524
40
3.3153366
50
116.9442934
51
147.6525603
0
ARC
8
front_labelLayer
10
73.5088978
20
52.8505451
40
3.9865256
50
115.8071707
51
117.6067417
0
ARC
8
front_labelLayer
10
73.6853003
20
52.4392331
40
4.433657
50
94.322668
51
115.5454389
0
ARC
8
front_labelLayer
10
73.7914204
20
51.5172565
40
5.3611328
50
89.9578825
51
94.7108953
0
ARC
8
front_labelLayer
10
73.8352815
20
50.4141529
40
6.4643582
50
80.5585374
51
90.3538282
0
ARC
8
front_labelLayer
10
74.2392629
20
52.7541672
40
4.0897995
50
65.1094371
51
80.763822
0
ARC
8
front_labelLayer
10
74.7114961
20
53.8001556
40
2.9422368
50
46.5584707
51
64.8782228
0
ARC
8
front_labelLayer
10
74.7492955
20
53.9091187
40
2.837527
50
19.3848774
51
45.5997164
0
ARC
8
front_labelLayer
10
73.107702
20
53.2931627
40
4.5906448
50
6.9633591
51
19.8363545
0
ARC
8
front_labelLayer
10
70.5758231
20
52.9527489
40
7.1451852
50
359.7631488
51
7.211554
0
LINE
8
front_labelLayer
10
86.0554199
20
47.2222354
11
86.0554199
21
45.9695987
0
LINE
8
front_labelLayer
10
81.2026855
20
48.9778995
11
81.2026855
21
55.4087589
0
LINE
8
front_labelLayer
10
81.2026855
20
55.4087589
11
79.6541504
21
55.4087589
0
LINE
8
front_labelLayer
10
79.6541504
20
55.4087589
11
79.6541504
21
56.1978214
0
LINE
8
front_labelLayer
10
79.6541504
20
56.1978214
11
81.2026855
21
56.8783878
0
LINE
8
front_labelLayer
10
81.2026855
20
56.8783878
11
81.8931152
21
59.1863956
0
LINE
8
front_labelLayer
10
81.8931152
20
59.1863956
11
82.8399902
21
59.1863956
0
LINE
8
front_labelLayer
10
82.8399902
20
59.1863956
11
82.8399902
21
56.6811221
0
LINE
8
front_labelLayer
10
82.8399902
20
56.6811221
11
85.9765137
21
56.6811221
0
LINE
8
front_labelLayer
10
85.9765137
20
56.6811221
11
85.9765137
21
55.4087589
0
LINE
8
front_labelLayer
10
85.9765137
20
55.4087589
11
82.8399902
21
55.4087589
0
LINE
8
front_labelLayer
10
82.8399902
20
55.4087589
11
82.8399902
21
49.0469425
0
ARC
8
front_labelLayer
10
84.5871547
20
52.4021197
40
5.3771616
50
269.8803717
51
278.3028038
0
ARC
8
front_labelLayer
10
84.6382205
20
51.9845934
40
4.956647
50
278.4156489
51
279.0081423
0
ARC
8
front_labelLayer
10
84.0349918
20
55.8382546
40
8.8572313
50
278.9589939
51
280.5104257
0
ARC
8
front_labelLayer
10
84.6099393
20
52.7532746
40
5.7191338
50
280.4848188
51
282.6267665
0
ARC
8
front_labelLayer
10
85.1142687
20
50.5126666
40
3.4224703
50
282.5876413
51
285.5794431
0
ARC
8
front_labelLayer
10
85.3680845
20
49.5793405
40
2.4552748
50
285.7235873
51
286.256764
0
ARC
8
front_labelLayer
10
85.367046
20
47.4255505
40
1.6104826
50
287.9888782
51
295.3047813
0
ARC
8
front_labelLayer
10
84.9786356
20
48.600672
40
2.8481211
50
283.3068802
51
288.1197989
0
ARC
8
front_labelLayer
10
84.5683148
20
50.3122274
40
4.6081687
50
280.0069323
51
283.373541
0
ARC
8
front_labelLayer
10
84.2936097
20
51.8030082
40
6.1240155
50
279.1863946
51
280.1143091
0
ARC
8
front_labelLayer
10
84.1251938
20
52.7609851
40
7.0966051
50
275.5260634
51
279.2939192
0
ARC
8
front_labelLayer
10
84.3151232
20
50.7771668
40
5.103717
50
270.8932119
51
275.5484281
0
ARC
8
front_labelLayer
10
84.3389782
20
49.8718104
40
4.19811
50
270.0031492
51
270.7602982
0
ARC
8
front_labelLayer
10
84.2731387
20
49.9495909
40
4.2764011
50
253.7847987
51
270.8852539
0
ARC
8
front_labelLayer
10
83.7664987
20
48.2217557
40
2.4758258
50
190.3817604
51
253.8772459
0
ARC
8
front_labelLayer
10
86.3488256
20
48.9199727
40
5.146466
50
179.3550856
51
192.8477715
0
ARC
8
front_labelLayer
10
86.136913
20
49.0263212
40
3.2969872
50
179.6416367
51
189.750575
0
ARC
8
front_labelLayer
10
84.97301
20
48.8187256
40
2.1147524
50
189.5479482
51
205.7873875
0
ARC
8
front_labelLayer
10
84.494702
20
48.5981626
40
1.5881532
50
206.1294543
51
221.4083841
0
ARC
8
front_labelLayer
10
84.4410681
20
48.5574664
40
1.5210177
50
221.5949213
51
262.3505096
0
ARC
8
front_labelLayer
10
84.5686194
20
49.213374
40
2.1884164
50
261.3265873
51
270.1913429
0
LINE
8
left_outsideCutPath
10
132
20
104
11
132
21
68.125
0
LINE
8
left_outsideCutPath
10
132
20
68.125
11
129
21
68.125
0
LINE
8
left_outsideCutPath
10
129
20
68.125
11
129
21
38.875
0
LINE
8
left_outsideCutPath
10
129
20
38.875
11
132
21
38.875
0
LINE
8
left_outsideCutPath
10
132
20
38.875
11
132
21
9.625
0
LINE
8
left_outsideCutPath
10
132
20
9.625
11
132
21
3
0
LINE
8
left_outsideCutPath
10
132
20
3
11
147.375
21
3
0
LINE
8
left_outsideCutPath
10
147.375
20
3
11
147.375
21
6
0
LINE
8
left_outsideCutPath
10
147.375
20
6
11
176.625
21
6
0
LINE
8
left_outsideCutPath
10
176.625
20
6
11
176.625
21
3
0
LINE
8
left_outsideCutPath
10
176.625
20
3
11
192
21
3
0
LINE
8
left_outsideCutPath
10
192
20
3
11
192
21
38.875
0
LINE
8
left_outsideCutPath
10
192
20
38.875
11
195
21
38.875
0
LINE
8
left_outsideCutPath
10
195
20
38.875
11
195
21
68.125
0
LINE
8
left_outsideCutPath
10
195
20
68.125
11
192
21
68.125
0
LINE
8
left_outsideCutPath
10
192
20
68.125
11
192
21
97.375
0
LINE
8
left_outsideCutPath
10
192
20
97.375
11
192
21
104
0
LINE
8
left_outsideCutPath
10
192
20
104
11
176.625
21
104
0
LINE
8
left_outsideCutPath
10
176.625
20
104
11
176.625
21
101
0
LINE
8
left_outsideCutPath
10
176.625
20
101
11
147.375
21
101
0
LINE
8
left_outsideCutPath
10
147.375
20
101
11
147.375
21
104
0
LINE
8
left_outsideCutPath
10
147.375
20
104
11
132
21
104
0
LINE
8
left_labelLayer
10
153.8370117
20
58.5435968
11
153.8370117
21
48.5146906
0
LINE
8
left_labelLayer
10
153.8370117
20
48.5146906
11
152.7670898
21
48.5146906
0
LINE
8
left_labelLayer
10
152.7670898
20
48.5146906
11
152.7670898
21
58.5435968
0
LINE
8
left_labelLayer
10
152.7670898
20
58.5435968
11
153.8370117
21
58.5435968
0
LINE
8
left_labelLayer
10
161.6874023
20
52.5301203
11
161.6874023
21
51.8533625
0
LINE
8
left_labelLayer
10
161.6874023
20
51.8533625
11
156.8211914
21
51.8533625
0
LINE
8
left_labelLayer
10
161.3844726
20
49.7973078
11
161.3844726
21
48.8434015
0
LINE
8
left_labelLayer
10
156.8469726
20
52.7234796
11
160.5401367
21
52.7234796
0
ARC
8
left_labelLayer
10
159.054762
20
52.5433056
40
4.1576701
50
256.0087944
51
270.4848039
0
ARC
8
left_labelLayer
10
158.7520013
20
51.3679253
40
2.9439763
50
223.5465689
51
256.1956973
0
ARC
8
left_labelLayer
10
158.9190197
20
51.4893174
40
3.1487827
50
194.0877302
51
223.0538203
0
ARC
8
left_labelLayer
10
160.4493744
20
51.9078122
40
4.7350931
50
181.3574722
51
194.4919865
0
ARC
8
left_labelLayer
10
161.8244814
20
51.9875165
40
6.1118839
50
179.9887739
51
181.799066
0
ARC
8
left_labelLayer
10
161.3306064
20
52.0264007
40
5.6181352
50
168.9539257
51
180.384345
0
ARC
8
left_labelLayer
10
159.4957501
20
52.4000088
40
3.7457203
50
149.4070977
51
169.1853767
0
ARC
8
left_labelLayer
10
158.9845409
20
52.6701064
40
3.1683276
50
140.1056215
51
148.9066962
0
ARC
8
left_labelLayer
10
158.6704501
20
52.9596819
40
2.7417005
50
92.4762578
51
140.5386427
0
ARC
8
left_labelLayer
10
158.8104015
20
51.925444
40
3.782216
50
89.9637727
51
93.9176008
0
ARC
8
left_labelLayer
10
158.8437982
20
52.4481602
40
3.2596466
50
74.2126016
51
90.5449969
0
ARC
8
left_labelLayer
10
159.0479602
20
53.2003842
40
2.4802656
50
41.2064618
51
74.0232694
0
ARC
8
left_labelLayer
10
158.6613164
20
52.8657726
40
2.9915885
50
11.5994316
51
41.1495949
0
ARC
8
left_labelLayer
10
157.332831
20
52.5593988
40
4.3546697
50
359.6147704
51
12.0336365
0
ARC
8
left_labelLayer
10
161.1146022
20
51.9391506
40
4.2942678
50
181.1446942
51
190.8007045
0
ARC
8
left_labelLayer
10
159.5996351
20
51.6403565
40
2.7501631
50
190.6005746
51
206.0275213
0
ARC
8
left_labelLayer
10
158.929355
20
51.3234771
40
2.0088348
50
206.2950096
51
222.5558148
0
ARC
8
left_labelLayer
10
158.8699655
20
51.2923816
40
1.9441339
50
223.0644934
51
258.1401492
0
ARC
8
left_labelLayer
10
159.1064076
20
52.2659558
40
2.945685
50
257.5311858
51
270.4319205
0
ARC
8
left_labelLayer
10
159.1090464
20
54.9711671
40
5.6508463
50
270.1983952
51
292.2090402
0
ARC
8
left_labelLayer
10
158.8376011
20
55.7506958
40
6.4752903
50
291.8255082
51
293.1613378
0
ARC
8
left_labelLayer
10
158.8246784
20
54.7344194
40
6.423133
50
287.9023052
51
293.4861486
0
ARC
8
left_labelLayer
10
159.2906208
20
53.2968234
40
4.9119144
50
281.9935949
51
287.8851266
0
ARC
8
left_labelLayer
10
159.4035523
20
52.8909324
40
4.4914922
50
275.9054204
51
281.6603774
0
ARC
8
left_labelLayer
10
159.1774911
20
55.0009747
40
6.6136
50
271.911964
51
275.9727031
0
ARC
8
left_labelLayer
10
159.0949795
20
57.1025091
40
8.7167262
50
269.9668843
51
271.9931439
0
ARC
8
left_labelLayer
10
158.7793711
20
52.7027932
40
2.1090677
50
89.442231
51
106.2089396
0
ARC
8
left_labelLayer
10
158.652489
20
53.165431
40
1.6294178
50
106.4657256
51
137.9176365
0
ARC
8
left_labelLayer
10
159.0162682
20
52.8459731
40
2.1135192
50
138.0994901
51
160.5866353
0
ARC
8
left_labelLayer
10
159.9513549
20
52.5019698
40
3.1098119
50
160.3353307
51
172.5315348
0
ARC
8
left_labelLayer
10
160.8718505
20
52.3544696
40
4.0417584
50
172.1544175
51
174.7616358
0
ARC
8
left_labelLayer
10
156.8942691
20
52.7441898
40
3.6459264
50
359.6745376
51
8.9224397
0
ARC
8
left_labelLayer
10
158.1970466
20
52.9564565
40
2.3260042
50
8.7342245
51
23.277169
0
ARC
8
left_labelLayer
10
158.8155245
20
53.2160763
40
1.655282
50
23.4821545
51
39.7072029
0
ARC
8
left_labelLayer
10
158.9674453
20
53.3297626
40
1.4658077
50
40.0822855
51
80.6243336
0
ARC
8
left_labelLayer
10
158.8110692
20
52.6129426
40
2.1988468
50
79.6468243
51
90.2909781
0
LINE
8
left_labelLayer
10
166.6954101
20
55.5787531
11
166.6954101
21
54.7473078
0
LINE
8
left_labelLayer
10
166.6954101
20
54.7473078
11
164.897168
21
54.7473078
0
LINE
8
left_labelLayer
10
164.897168
20
54.7473078
11
164.897168
21
48.5146906
0
LINE
8
left_labelLayer
10
164.897168
20
48.5146906
11
163.8272461
21
48.5146906
0
LINE
8
left_labelLayer
10
163.8272461
20
48.5146906
11
163.8272461
21
54.7473078
0
LINE
8
left_labelLayer
10
163.8272461
20
54.7473078
11
162.5639648
21
54.7473078
0
LINE
8
left_labelLayer
10
162.5639648
20
54.7473078
11
162.5639648
21
55.2307062
0
LINE
8
left_labelLayer
10
162.5639648
20
55.2307062
11
163.8272461
21
55.617425
0
LINE
8
left_labelLayer
10
163.8272461
20
55.617425
11
163.8272461
21
56.010589
0
LINE
8
left_labelLayer
10
167.4172851
20
58.3889093
11
167.1401367
21
57.5316828
0
LINE
8
left_labelLayer
10
164.897168
20
56.0363703
11
164.897168
21
55.5787531
0
LINE
8
left_labelLayer
10
164.897168
20
55.5787531
11
166.6954101
21
55.5787531
0
ARC
8
left_labelLayer
10
168.1632667
20
56.060439
40
4.3363071
50
167.5776113
51
180.6586839
0
ARC
8
left_labelLayer
10
166.1241901
20
56.535833
40
2.2428497
50
141.7433716
51
168.2322224
0
ARC
8
left_labelLayer
10
165.7921897
20
56.7091126
40
1.8761436
50
98.2551475
51
139.6203373
0
ARC
8
left_labelLayer
10
166.0836922
20
55.3624833
40
3.2520659
50
89.6696698
51
99.9314311
0
ARC
8
left_labelLayer
10
166.0845063
20
55.1691378
40
3.4454042
50
81.5641109
51
89.701745
0
ARC
8
left_labelLayer
10
165.8422889
20
53.479304
40
5.1524956
50
75.9739848
51
81.6564771
0
ARC
8
left_labelLayer
10
165.42662
20
51.7551988
40
6.9259558
50
73.2963818
51
76.0946186
0
ARC
8
left_labelLayer
10
165.5312939
20
52.591519
40
5.1955359
50
71.9613381
51
76.591809
0
ARC
8
left_labelLayer
10
165.9343677
20
54.3013753
40
3.4388208
50
76.5183925
51
83.0216455
0
ARC
8
left_labelLayer
10
166.0747801
20
55.43052
40
2.3009824
50
83.076116
51
89.7926925
0
ARC
8
left_labelLayer
10
166.0701599
20
56.288632
40
1.4429135
50
89.485944
51
103.419697
0
ARC
8
left_labelLayer
10
165.9400709
20
56.7884256
40
0.9266348
50
102.7677369
51
144.3380486
0
ARC
8
left_labelLayer
10
166.2021412
20
56.6198066
40
1.2379652
50
145.0688376
51
162.1802127
0
ARC
8
left_labelLayer
10
167.1007261
20
56.3174785
40
2.1859969
50
161.8438039
51
171.7846515
0
ARC
8
left_labelLayer
10
168.5662485
20
56.0973611
40
3.6679433
50
171.6527496
51
178.4383767
0
ARC
8
left_labelLayer
10
169.9486887
20
56.0384069
40
5.0515214
50
178.1972618
51
180.0230995
0
LINE
8
left_labelLayer
10
171.2329101
20
49.3976984
11
171.2329101
21
48.5791437
0
LINE
8
left_labelLayer
10
168.0618164
20
50.544964
11
168.0618164
21
54.7473078
0
LINE
8
left_labelLayer
10
168.0618164
20
54.7473078
11
167.0499023
21
54.7473078
0
LINE
8
left_labelLayer
10
167.0499023
20
54.7473078
11
167.0499023
21
55.2629328
0
LINE
8
left_labelLayer
10
167.0499023
20
55.2629328
11
168.0618164
21
55.7076593
0
LINE
8
left_labelLayer
10
168.0618164
20
55.7076593
11
168.5129883
21
57.2158625
0
LINE
8
left_labelLayer
10
168.5129883
20
57.2158625
11
169.1317383
21
57.2158625
0
LINE
8
left_labelLayer
10
169.1317383
20
57.2158625
11
169.1317383
21
55.5787531
0
LINE
8
left_labelLayer
10
169.1317383
20
55.5787531
11
171.1813476
21
55.5787531
0
LINE
8
left_labelLayer
10
171.1813476
20
55.5787531
11
171.1813476
21
54.7473078
0
LINE
8
left_labelLayer
10
171.1813476
20
54.7473078
11
169.1317383
21
54.7473078
0
LINE
8
left_labelLayer
10
169.1317383
20
54.7473078
11
169.1317383
21
50.5900812
0
ARC
8
left_labelLayer
10
170.2734495
20
52.78257
40
3.5137855
50
269.8803761
51
278.302816
0
ARC
8
left_labelLayer
10
170.3067898
20
52.510079
40
3.2393424
50
278.4152745
51
279.0077046
0
ARC
8
left_labelLayer
10
169.9125125
20
55.028659
40
5.7885943
50
278.9590813
51
280.5103253
0
ARC
8
left_labelLayer
10
170.28841
20
53.011681
40
3.7368889
50
280.4847473
51
282.6269053
0
ARC
8
left_labelLayer
10
170.6179062
20
51.5478629
40
2.2364467
50
282.5875991
51
285.5794264
0
ARC
8
left_labelLayer
10
170.7836955
20
50.9381654
40
1.6046283
50
285.7240669
51
286.2571801
0
ARC
8
left_labelLayer
10
170.78308
20
49.5305621
40
1.0523992
50
287.9888923
51
295.3047629
0
ARC
8
left_labelLayer
10
170.5292561
20
50.2985026
40
1.861194
50
283.3069561
51
288.1197571
0
ARC
8
left_labelLayer
10
170.2610865
20
51.4171453
40
3.0115282
50
280.007099
51
283.3734286
0
ARC
8
left_labelLayer
10
170.0818573
20
52.3897234
40
4.0004614
50
279.186246
51
280.1144784
0
ARC
8
left_labelLayer
10
169.9715945
20
53.016915
40
4.63722
50
275.5260099
51
279.2940002
0
ARC
8
left_labelLayer
10
170.0956842
20
51.7207756
40
3.3351549
50
270.893237
51
275.5483794
0
ARC
8
left_labelLayer
10
170.111275
20
51.1282026
40
2.7424183
50
270.0031494
51
270.7605472
0
ARC
8
left_labelLayer
10
170.0682511
20
51.1799288
40
2.794478
50
253.7847875
51
270.885254
0
ARC
8
left_labelLayer
10
169.7371796
20
50.0508504
40
1.6178665
50
190.3817637
51
253.8772416
0
ARC
8
left_labelLayer
10
171.4246521
20
50.5071122
40
3.3630487
50
179.3551107
51
192.8477504
0
ARC
8
left_labelLayer
10
171.2861783
20
50.5766077
40
2.1544822
50
179.6416866
51
189.7505529
0
ARC
8
left_labelLayer
10
170.525591
20
50.4409484
40
1.3819155
50
189.5479184
51
205.7873815
0
ARC
8
left_labelLayer
10
170.2130311
20
50.2968161
40
1.0377981
50
206.1294056
51
221.408409
0
ARC
8
left_labelLayer
10
170.177987
20
50.2702255
40
0.9939322
50
221.5949245
51
262.3505174
0
ARC
8
left_labelLayer
10
170.2613394
20
50.6988617
40
1.4300775
50
261.3266514
51
270.1912627
0
LINE
8
top_outsideCutPath
10
201
20
66
11
201
21
50.625
0
LINE
8
top_outsideCutPath
10
201
20
50.625
11
198
21
50.625
0
LINE
8
top_outsideCutPath
10
198
20
50.625
11
198
21
21.375
0
LINE
8
top_outsideCutPath
10
198
20
21.375
11
201
21
21.375
0
LINE
8
top_outsideCutPath
10
201
20
21.375
11
201
21
6
0
LINE
8
top_outsideCutPath
10
201
20
6
11
217.125
21
6
0
LINE
8
top_outsideCutPath
10
217.125
20
6
11
217.125
21
3
0
LINE
8
top_outsideCutPath
10
217.125
20
3
11
246.375
21
3
0
LINE
8
top_outsideCutPath
10
246.375
20
3
11
246.375
21
6
0
LINE
8
top_outsideCutPath
10
246.375
20
6
11
275.625
21
6
0
LINE
8
top_outsideCutPath
10
275.625
20
6
11
275.625
21
3
0
LINE
8
top_outsideCutPath
10
275.625
20
3
11
304.875
21
3
0
LINE
8
top_outsideCutPath
10
304.875
20
3
11
304.875
21
6
0
LINE
8
top_outsideCutPath
10
304.875
20
6
11
321
21
6
0
LINE
8
top_outsideCutPath
10
321
20
6
11
321
21
21.375
0
LINE
8
top_outsideCutPath
10
321
20
21.375
11
324
21
21.375
0
LINE
8
top_outsideCutPath
10
324
20
21.375
11
324
21
50.625
0
LINE
8
top_outsideCutPath
10
324
20
50.625
11
321
21
50.625
0
LINE
8
top_outsideCutPath
10
321
20
50.625
11
321
21
66
0
LINE
8
top_outsideCutPath
10
321
20
66
11
304.875
21
66
0
LINE
8
top_outsideCutPath
10
304.875
20
66
11
304.875
21
69
0
LINE
8
top_outsideCutPath
10
304.875
20
69
11
275.625
21
69
0
LINE
8
top_outsideCutPath
10
275.625
20
69
11
275.625
21
66
0
LINE
8
top_outsideCutPath
10
275.625
20
66
11
246.375
21
66
0
LINE
8
top_outsideCutPath
10
246.375
20
66
11
246.375
21
69
0
LINE
8
top_outsideCutPath
10
246.375
20
69
11
217.125
21
69
0
LINE
8
top_outsideCutPath
10
217.125
20
69
11
217.125
21
66
0
LINE
8
top_outsideCutPath
10
217.125
20
66
11
201
21
66
0
LINE
8
top_labelLayer
10
255.2893985
20
34.1179687
11
255.2893985
21
33.2994141
0
LINE
8
top_labelLayer
10
252.1183048
20
35.2652344
11
252.1183048
21
39.4675781
0
LINE
8
top_labelLayer
10
252.1183048
20
39.4675781
11
251.1063907
21
39.4675781
0
LINE
8
top_labelLayer
10
251.1063907
20
39.4675781
11
251.1063907
21
39.9832031
0
LINE
8
top_labelLayer
10
251.1063907
20
39.9832031
11
252.1183048
21
40.4279297
0
LINE
8
top_labelLayer
10
252.1183048
20
40.4279297
11
252.5694767
21
41.9361328
0
LINE
8
top_labelLayer
10
252.5694767
20
41.9361328
11
253.1882267
21
41.9361328
0
LINE
8
top_labelLayer
10
253.1882267
20
41.9361328
11
253.1882267
21
40.2990234
0
LINE
8
top_labelLayer
10
253.1882267
20
40.2990234
11
255.237836
21
40.2990234
0
LINE
8
top_labelLayer
10
255.237836
20
40.2990234
11
255.237836
21
39.4675781
0
LINE
8
top_labelLayer
10
255.237836
20
39.4675781
11
253.1882267
21
39.4675781
0
LINE
8
top_labelLayer
10
253.1882267
20
39.4675781
11
253.1882267
21
35.3103516
0
ARC
8
top_labelLayer
10
254.3299379
20
37.5028403
40
3.5137855
50
269.8803761
51
278.302816
0
ARC
8
top_labelLayer
10
254.3632782
20
37.2303494
40
3.2393424
50
278.4152745
51
279.0077046
0
ARC
8
top_labelLayer
10
253.9690009
20
39.7489293
40
5.7885943
50
278.9590813
51
280.5103253
0
ARC
8
top_labelLayer
10
254.3448984
20
37.7319514
40
3.7368889
50
280.4847473
51
282.6269053
0
ARC
8
top_labelLayer
10
254.6743946
20
36.2681333
40
2.2364467
50
282.5875991
51
285.5794264
0
ARC
8
top_labelLayer
10
254.8401839
20
35.6584358
40
1.6046283
50
285.7240669
51
286.2571801
0
ARC
8
top_labelLayer
10
254.8395684
20
34.2508324
40
1.0523992
50
287.9888923
51
295.3047629
0
ARC
8
top_labelLayer
10
254.5857445
20
35.018773
40
1.861194
50
283.3069561
51
288.1197571
0
ARC
8
top_labelLayer
10
254.3175749
20
36.1374157
40
3.0115282
50
280.007099
51
283.3734286
0
ARC
8
top_labelLayer
10
254.1383457
20
37.1099937
40
4.0004614
50
279.186246
51
280.1144784
0
ARC
8
top_labelLayer
10
254.0280829
20
37.7371854
40
4.63722
50
275.5260099
51
279.2940002
0
ARC
8
top_labelLayer
10
254.1521726
20
36.441046
40
3.3351549
50
270.893237
51
275.5483794
0
ARC
8
top_labelLayer
10
254.1677634
20
35.848473
40
2.7424183
50
270.0031494
51
270.7605472
0
ARC
8
top_labelLayer
10
254.1247395
20
35.9001992
40
2.794478
50
253.7847875
51
270.885254
0
ARC
8
top_labelLayer
10
253.793668
20
34.7711207
40
1.6178665
50
190.3817637
51
253.8772416
0
ARC
8
top_labelLayer
10
255.4811405
20
35.2273826
40
3.3630487
50
179.3551107
51
192.8477504
0
ARC
8
top_labelLayer
10
255.3426667
20
35.2968781
40
2.1544822
50
179.6416866
51
189.7505529
0
ARC
8
top_labelLayer
10
254.5820794
20
35.1612187
40
1.3819155
50
189.5479184
51
205.7873815
0
ARC
8
top_labelLayer
10
254.2695194
20
35.0170865
40
1.0377981
50
206.1294056
51
221.408409
0
ARC
8
top_labelLayer
10
254.2344754
20
34.9904959
40
0.9939322
50
221.5949245
51
262.3505174
0
ARC
8
top_labelLayer
10
254.3178278
20
35.419132
40
1.4300775
50
261.3266514
51
270.1912627
0
ARC
8
top_labelLayer
10
257.271739
20
36.7361789
40
5.5265742
50
349.1761812
51
0.3862746
0
ARC
8
top_labelLayer
10
259.132394
20
36.3652535
40
3.6293963
50
330.2507213
51
349.4116339
0
ARC
8
top_labelLayer
10
259.7050193
20
36.0676262
40
2.9846667
50
318.1439746
51
329.7566222
0
ARC
8
top_labelLayer
10
259.8083692
20
35.9848017
40
2.8524329
50
278.8959152
51
317.9979111
0
ARC
8
top_labelLayer
10
259.5420748
20
37.2606513
40
4.154636
50
269.7503033
51
279.8033029
0
ARC
8
top_labelLayer
10
259.4988878
20
36.5417826
40
3.4358194
50
253.5437043
51
270.4182562
0
ARC
8
top_labelLayer
10
259.3845187
20
36.0993688
40
2.9791706
50
238.8115666
51
253.2428243
0
ARC
8
top_labelLayer
10
259.3476039
20
36.0251342
40
2.8965569
50
207.794695
51
238.675806
0
ARC
8
top_labelLayer
10
259.8773867
20
36.3495882
40
3.5167372
50
205.6560725
51
208.4460699
0
ARC
8
top_labelLayer
10
260.2852249
20
36.5195098
40
3.9580062
50
188.9102518
51
205.3171589
0
ARC
8
top_labelLayer
10
261.6600997
20
36.7523693
40
5.3523833
50
179.7744697
51
189.0932914
0
ARC
8
top_labelLayer
10
261.8629187
20
36.8110644
40
5.5552882
50
169.2442999
51
180.3880768
0
ARC
8
top_labelLayer
10
259.9763839
20
37.1839638
40
3.6323333
50
150.7111465
51
169.4695478
0
ARC
8
top_labelLayer
10
259.3741425
20
37.493238
40
2.9558836
50
138.1759407
51
150.2287542
0
ARC
8
top_labelLayer
10
259.2739673
20
37.5701106
40
2.8299872
50
99.1759308
51
137.9832764
0
ARC
8
top_labelLayer
10
259.5496961
20
36.2724954
40
4.1554796
50
89.7326506
51
100.0759692
0
ARC
8
top_labelLayer
10
259.6048032
20
36.8328987
40
3.5952084
50
73.5222701
51
90.5692234
0
ARC
8
top_labelLayer
10
259.815642
20
37.5989286
40
2.8008772
50
41.1445621
51
73.2133952
0
ARC
8
top_labelLayer
10
259.4131705
20
37.253009
40
3.3315634
50
13.5014283
51
41.0703498
0
ARC
8
top_labelLayer
10
257.8582256
20
36.8460998
40
4.9386447
50
1.1277157
51
13.8800066
0
ARC
8
top_labelLayer
10
256.5193611
20
36.7743325
40
6.2788265
50
359.9918326
51
1.5420332
0
ARC
8
top_labelLayer
10
262.8343599
20
36.7456339
40
5.4180796
50
179.7059773
51
187.9160682
0
ARC
8
top_labelLayer
10
260.8471682
20
36.4601775
40
3.4105224
50
187.7639376
51
200.0976932
0
ARC
8
top_labelLayer
10
259.752442
20
36.0590679
40
2.2446263
50
200.084588
51
216.9131349
0
ARC
8
top_labelLayer
10
259.3526832
20
35.7736223
40
1.7536007
50
217.3009502
51
261.7098985
0
ARC
8
top_labelLayer
10
259.5382644
20
36.6592047
40
2.6572765
50
260.5033347
51
270.2476534
0
ARC
8
top_labelLayer
10
259.5736852
20
36.4869866
40
2.4851488
50
269.4481605
51
284.7255968
0
ARC
8
top_labelLayer
10
259.7704205
20
35.7573648
40
1.7294905
50
284.5662222
51
322.6333881
0
ARC
8
top_labelLayer
10
259.3104444
20
36.0896772
40
2.296799
50
323.0089264
51
342.6390566
0
ARC
8
top_labelLayer
10
257.9948136
20
36.5196641
40
3.680842
50
342.3615623
51
353.753754
0
ARC
8
top_labelLayer
10
256.0538453
20
36.7536238
40
5.6357833
50
353.5362928
51
0.2014353
0
ARC
8
top_labelLayer
10
256.3512126
20
36.800686
40
5.3384508
50
359.7075496
51
7.8972654
0
ARC
8
top_labelLayer
10
258.3062899
20
37.0809631
40
3.363418
50
7.7440078
51
20.0690035
0
ARC
8
top_labelLayer
10
259.3957511
20
37.4807531
40
2.2029209
50
20.0257125
51
37.4350451
0
ARC
8
top_labelLayer
10
259.7572244
20
37.7372486
40
1.760055
50
37.9577734
51
80.400608
0
ARC
8
top_labelLayer
10
259.5518118
20
36.8207122
40
2.6984698
50
79.3453612
51
90.3174804
0
ARC
8
top_labelLayer
10
259.5137777
20
36.9729523
40
2.5462929
50
89.4806145
51
103.8805048
0
ARC
8
top_labelLayer
10
259.2998225
20
37.7876925
40
1.7040615
50
103.4685193
51
142.311897
0
ARC
8
top_labelLayer
10
259.7157676
20
37.4951704
40
2.2121745
50
142.9025821
51
162.3749596
0
ARC
8
top_labelLayer
10
261.0264202
20
37.0584004
40
3.5936036
50
162.0653373
51
173.167465
0
ARC
8
top_labelLayer
10
263.0700256
20
36.7977498
40
5.6537263
50
173.0085991
51
180.2463852
0
LINE
8
top_labelLayer
10
265.7436954
20
34.14375
11
265.6663517
21
34.14375
0
LINE
8
top_labelLayer
10
265.7436954
20
32.9707031
11
265.7436954
21
30.0638672
0
LINE
8
top_labelLayer
10
265.7436954
20
30.0638672
11
264.6737735
21
30.0638672
0
LINE
8
top_labelLayer
10
264.6737735
20
30.0638672
11
264.6737735
21
40.2990234
0
LINE
8
top_labelLayer
10
264.6737735
20
40.2990234
11
265.5438907
21
40.2990234
0
LINE
8
top_labelLayer
10
265.5438907
20
40.2990234
11
265.6921329
21
39.3322266
0
LINE
8
top_labelLayer
10
265.6921329
20
39.3322266
11
265.7436954
21
39.3322266
0
LINE
8
top_labelLayer
10
265.7436954
20
37.0119141
11
265.7436954
21
36.7734375
0
ARC
8
top_labelLayer
10
267.9428394
20
36.3513082
40
3.2453036
50
255.7755475
51
270.3185603
0
ARC
8
top_labelLayer
10
267.8502301
20
35.9398481
40
2.8237252
50
245.9801596
51
255.5455609
0
ARC
8
top_labelLayer
10
267.6708463
20
35.5226921
40
2.3696819
50
215.5850115
51
245.8361846
0
ARC
8
top_labelLayer
10
255.6208452
20
32.8743329
40
10.1253948
50
2.9503316
51
7.2021023
0
ARC
8
top_labelLayer
10
257.259007
20
32.9659863
40
8.4846899
50
0.0318523
51
2.9016081
0
ARC
8
top_labelLayer
10
268.1005168
20
37.6770286
40
2.8799804
50
132.3564949
51
144.9195946
0
ARC
8
top_labelLayer
10
267.6593285
20
38.1583529
40
2.2270514
50
115.4005963
51
132.3118467
0
ARC
8
top_labelLayer
10
267.8314236
20
37.7394108
40
2.6794237
50
97.706627
51
114.882162
0
ARC
8
top_labelLayer
10
267.9516136
20
36.9599229
40
3.4680192
50
89.8468603
51
97.947415
0
ARC
8
top_labelLayer
10
267.993996
20
37.1485085
40
3.2795884
50
74.1923586
51
90.5785087
0
ARC
8
top_labelLayer
10
268.2209259
20
37.9734464
40
2.424039
50
38.0523392
51
74.0417384
0
ARC
8
top_labelLayer
10
267.5950153
20
37.4937128
40
3.2126197
50
16.335596
51
37.9090531
0
ARC
8
top_labelLayer
10
265.9507369
20
36.9872647
40
4.9330212
50
4.5766465
51
16.6088757
0
ARC
8
top_labelLayer
10
263.9263755
20
36.7855539
40
6.9671352
50
359.9003582
51
4.9018021
0
ARC
8
top_labelLayer
10
264.6204013
20
36.7364283
40
6.273208
50
350.6562816
51
0.338022
0
ARC
8
top_labelLayer
10
266.8073434
20
36.364454
40
4.0549072
50
335.830607
51
350.825476
0
ARC
8
top_labelLayer
10
267.7693427
20
35.9492427
40
3.0072731
50
321.3161497
51
335.5436112
0
ARC
8
top_labelLayer
10
268.1371217
20
35.6495587
40
2.5328764
50
274.0640044
51
321.4081055
0
ARC
8
top_labelLayer
10
267.9657846
20
36.7349107
40
3.6288593
50
269.9226077
51
275.5481159
0
ARC
8
top_labelLayer
10
267.7841591
20
36.4363543
40
3.0828651
50
89.590446
51
100.3501786
0
ARC
8
top_labelLayer
10
267.5643296
20
37.5912132
40
1.9073228
50
100.086845
51
118.1917651
0
ARC
8
top_labelLayer
10
267.3391281
20
38.0304312
40
1.4138468
50
118.5569366
51
141.0243619
0
ARC
8
top_labelLayer
10
267.6822853
20
37.7883721
40
1.8330834
50
141.8890252
51
160.597316
0
ARC
8
top_labelLayer
10
268.8882834
20
37.3458569
40
3.1176401
50
160.2895854
51
171.2453099
0
ARC
8
top_labelLayer
10
270.8711787
20
37.0261498
40
5.1261134
50
171.0868503
51
178.3247302
0
ARC
8
top_labelLayer
10
272.5524719
20
36.9462382
40
6.8090934
50
178.0661888
51
179.4473552
0
ARC
8
top_labelLayer
10
272.8178922
20
36.7458155
40
7.0742507
50
179.7762837
51
185.7075293
0
ARC
8
top_labelLayer
10
270.0287645
20
36.4584374
40
4.2703789
50
185.5925007
51
194.2050732
0
ARC
8
top_labelLayer
10
268.2420817
20
35.9947311
40
2.4245615
50
193.9430489
51
208.021819
0
ARC
8
top_labelLayer
10
267.5191946
20
35.6269814
40
1.6137171
50
208.5536995
51
217.5604848
0
ARC
8
top_labelLayer
10
267.4602827
20
35.6024741
40
1.552165
50
218.1690303
51
253.8047374
0
ARC
8
top_labelLayer
10
267.7481792
20
36.490083
40
2.4850166
50
253.1382209
51
266.8483326
0
ARC
8
top_labelLayer
10
267.8289115
20
37.4421264
40
3.4401747
50
266.3775337
51
270.05105
0
ARC
8
top_labelLayer
10
267.8563391
20
35.8045664
40
1.8027779
50
269.2256903
51
292.0430319
0
ARC
8
top_labelLayer
10
267.8806637
20
35.6596049
40
1.6595894
50
293.1429658
51
324.1354114
0
ARC
8
top_labelLayer
10
267.519333
20
35.9655337
40
2.1319564
50
323.1616254
51
325.0154294
0
ARC
8
top_labelLayer
10
267.1322797
20
36.2055403
40
2.5868044
50
325.5753782
51
344.1504725
0
ARC
8
top_labelLayer
10
265.7936657
20
36.6012479
40
3.9826284
50
343.9336354
51
355.113755
0
ARC
8
top_labelLayer
10
264.0848891
20
36.7746399
40
5.7000291
50
354.8402218
51
0.117488
0
ARC
8
top_labelLayer
10
264.3858362
20
36.8135767
40
5.3991389
50
359.7108366
51
7.8610556
0
ARC
8
top_labelLayer
10
266.3489587
20
37.0934167
40
3.4162017
50
7.7149473
51
19.8859573
0
ARC
8
top_labelLayer
10
267.4286284
20
37.4833975
40
2.2682593
50
19.8991389
51
35.8980299
0
ARC
8
top_labelLayer
10
267.9102082
20
37.84811
40
1.6643541
50
35.4481577
51
85.2266624
0
ARC
8
top_labelLayer
10
267.8096049
20
37.2172421
40
2.301901
50
84.0378684
51
90.0848652
0
LINE
8
back_outsideCutPath
10
0
20
208
11
0
21
172.125
0
LINE
8
back_outsideCutPath
10
0
20
172.125
11
3
21
172.125
0
LINE
8
back_outsideCutPath
10
3
20
172.125
11
3
21
142.875
0
LINE
8
back_outsideCutPath
10
3
20
142.875
11
0
21
142.875
0
LINE
8
back_outsideCutPath
10
0
20
142.875
11
0
21
113.625
0
LINE
8
back_outsideCutPath
10
0
20
113.625
11
0
21
107
0
LINE
8
back_outsideCutPath
10
0
20
107
11
19.125
21
107
0
LINE
8
back_outsideCutPath
10
19.125
20
107
11
19.125
21
110
0
LINE
8
back_outsideCutPath
10
19.125
20
110
11
48.375
21
110
0
LINE
8
back_outsideCutPath
10
48.375
20
110
11
48.375
21
107
0
LINE
8
back_outsideCutPath
10
48.375
20
107
11
77.625
21
107
0
LINE
8
back_outsideCutPath
10
77.625
20
107
11
77.625
21
110
0
LINE
8
back_outsideCutPath
10
77.625
20
110
11
106.875
21
110
0
LINE
8
back_outsideCutPath
10
106.875
20
110
11
106.875
21
107
0
LINE
8
back_outsideCutPath
10
106.875
20
107
11
126
21
107
0
LINE
8
back_outsideCutPath
10
126
20
107
11
126
21
142.875
0
LINE
8
back_outsideCutPath
10
126
20
142.875
11
123
21
142.875
0
LINE
8
back_outsideCutPath
10
123
20
142.875
11
123
21
172.125
0
LINE
8
back_outsideCutPath
10
123
20
172.125
11
126
21
172.125
0
LINE
8
back_outsideCutPath
10
126
20
172.125
11
126
21
201.375
0
LINE
8
back_outsideCutPath
10
126
20
201.375
11
126
21
208
0
LINE
8
back_outsideCutPath
10
126
20
208
11
106.875
21
208
0
LINE
8
back_outsideCutPath
10
106.875
20
208
11
106.875
21
205
0
LINE
8
back_outsideCutPath
10
106.875
20
205
11
77.625
21
205
0
LINE
8
back_outsideCutPath
10
77.625
20
205
11
77.625
21
208
0
LINE
8
back_outsideCutPath
10
77.625
20
208
11
48.375
21
208
0
LINE
8
back_outsideCutPath
10
48.375
20
208
11
48.375
21
205
0
LINE
8
back_outsideCutPath
10
48.375
20
205
11
19.125
21
205
0
LINE
8
back_outsideCutPath
10
19.125
20
205
11
19.125
21
208
0
LINE
8
back_outsideCutPath
10
19.125
20
208
11
0
21
208
0
LINE
8
back_labelLayer
10
43.6975586
20
151.3158341
11
43.5791992
21
151.3158341
0
LINE
8
back_labelLayer
10
43.5791992
20
151.3158341
11
43.2339844
21
149.9251114
0
LINE
8
back_labelLayer
10
43.2339844
20
149.9251114
11
42.0602539
21
149.9251114
0
LINE
8
back_labelLayer
10
42.0602539
20
149.9251114
11
42.0602539
21
165.272377
0
LINE
8
back_labelLayer
10
42.0602539
20
165.272377
11
43.6975586
21
165.272377
0
LINE
8
back_labelLayer
10
43.6975586
20
165.272377
11
43.6975586
21
161.5440567
0
LINE
8
back_labelLayer
10
43.6186523
20
159.2952286
11
43.6975586
21
159.2952286
0
ARC
8
back_labelLayer
10
47.1396448
20
155.9088759
40
5.0041719
50
74.2393398
51
90.5623849
0
ARC
8
back_labelLayer
10
47.4705383
20
157.1227726
40
3.7460516
50
38.5631183
51
74.0670482
0
ARC
8
back_labelLayer
10
46.6190005
20
156.4606515
40
4.8246562
50
16.4709331
51
38.4075285
0
ARC
8
back_labelLayer
10
44.1658458
20
155.6914147
40
7.3953632
50
5.1338565
51
16.7973374
0
ARC
8
back_labelLayer
10
41.0689459
20
155.3624414
40
10.5093984
50
359.8779405
51
5.4093629
0
ARC
8
back_labelLayer
10
41.9785866
20
155.2834158
40
9.5999008
50
350.6562836
51
0.3380326
0
ARC
8
back_labelLayer
10
45.3252721
20
154.7141816
40
6.2052267
50
335.8305918
51
350.8254852
0
ARC
8
back_labelLayer
10
46.7974033
20
154.0787909
40
4.6020502
50
321.316167
51
335.5435942
0
ARC
8
back_labelLayer
10
47.360226
20
153.6201783
40
3.8760687
50
274.0640041
51
321.4080995
0
ARC
8
back_labelLayer
10
47.0980295
20
155.2810182
40
5.5531777
50
269.9225956
51
275.5481817
0
ARC
8
back_labelLayer
10
47.0629157
20
154.6940618
40
4.9662928
50
255.7755272
51
270.3185549
0
ARC
8
back_labelLayer
10
46.9211877
20
154.0643907
40
4.3211363
50
245.9801516
51
255.5455951
0
ARC
8
back_labelLayer
10
46.6466862
20
153.4260366
40
3.6263355
50
215.5850275
51
245.836166
0
ARC
8
back_labelLayer
10
9.5608182
20
161.5151978
40
34.1367525
50
358.1123334
51
0.0484374
0
ARC
8
back_labelLayer
10
19.0618122
20
161.1962319
40
24.6304083
50
355.7238578
51
358.1258945
0
ARC
8
back_labelLayer
10
23.2563807
20
160.9079671
40
20.4260381
50
355.4714965
51
355.6528923
0
ARC
8
back_labelLayer
10
46.7510601
20
157.1659403
40
3.7225986
50
95.1835081
51
145.110904
0
ARC
8
back_labelLayer
10
47.0782643
20
155.3208128
40
5.5920075
50
89.8743526
51
96.814549
0
ARC
8
back_labelLayer
10
46.8195306
20
154.9409785
40
4.6009599
50
89.5731323
51
100.7324326
0
ARC
8
back_labelLayer
10
46.478932
20
156.6617993
40
2.8468485
50
100.4469514
51
119.6700651
0
ARC
8
back_labelLayer
10
46.163091
20
157.2523018
40
2.1774971
50
120.1402866
51
142.4249221
0
ARC
8
back_labelLayer
10
46.6856195
20
156.906631
40
2.8027762
50
143.3382306
51
161.2560033
0
ARC
8
back_labelLayer
10
48.8707457
20
156.1308382
40
5.1214081
50
160.8926452
51
171.2334248
0
ARC
8
back_labelLayer
10
52.5185375
20
155.5423636
40
8.8163107
50
171.066779
51
177.845688
0
ARC
8
back_labelLayer
10
56.3119869
20
155.3494221
40
12.6144318
50
177.6176493
51
180.042556
0
ARC
8
back_labelLayer
10
54.5231738
20
155.2977785
40
10.8256977
50
179.7762593
51
185.7075322
0
ARC
8
back_labelLayer
10
50.2550011
20
154.8580052
40
6.5349619
50
185.5924933
51
194.2050815
0
ARC
8
back_labelLayer
10
47.5208457
20
154.1483958
40
3.7103128
50
193.9430473
51
208.0218214
0
ARC
8
back_labelLayer
10
46.4145998
20
153.5856198
40
2.4694632
50
208.5536574
51
217.5604904
0
ARC
8
back_labelLayer
10
46.3244592
20
153.548127
40
2.3752862
50
218.1690588
51
253.8047137
0
ARC
8
back_labelLayer
10
46.7650289
20
154.9064472
40
3.8028412
50
253.1382372
51
266.8483026
0
ARC
8
back_labelLayer
10
46.8885679
20
156.3632686
40
5.2644289
50
266.3775124
51
270.0510852
0
ARC
8
back_labelLayer
10
46.9281873
20
154.362611
40
3.2639559
50
269.3869014
51
285.8630506
0
ARC
8
back_labelLayer
10
47.1706796
20
153.4862091
40
2.3546552
50
286.0162773
51
326.8497488
0
ARC
8
back_labelLayer
10
46.000293
20
154.2615478
40
3.7585436
50
326.7105074
51
343.666191
0
ARC
8
back_labelLayer
10
43.809417
20
154.9310116
40
6.0493275
50
343.4171183
51
353.6369328
0
ARC
8
back_labelLayer
10
40.5002707
20
155.3236657
40
9.3816346
50
353.4934857
51
0.220555
0
ARC
8
back_labelLayer
10
40.2086018
20
155.3989347
40
9.6733134
50
359.7680795
51
6.3095399
0
ARC
8
back_labelLayer
10
43.8523268
20
155.8170774
40
6.0057251
50
6.1648602
51
16.039639
0
ARC
8
back_labelLayer
10
46.1995713
20
156.5088089
40
3.5587671
50
15.7779538
51
32.0151374
0
ARC
8
back_labelLayer
10
46.9314744
20
156.9279418
40
2.7161762
50
32.7034046
51
35.5241734
0
ARC
8
back_labelLayer
10
47.1992308
20
157.1182478
40
2.3876805
50
35.5408376
51
79.8011224
0
ARC
8
back_labelLayer
10
46.8785906
20
155.7551436
40
3.786748
50
78.678131
51
90.3749696
0
LINE
8
back_labelLayer
10
62.299707
20
149.9251114
11
61.0865234
21
149.9251114
0
LINE
8
back_labelLayer
10
61.0865234
20
149.9251114
11
60.7610352
21
151.4637833
0
LINE
8
back_labelLayer
10
60.7610352
20
151.4637833
11
60.6821289
21
151.4637833
0
LINE
8
back_labelLayer
10
58.8672852
20
156.3461075
11
60.7018555
21
156.4052872
0
LINE
8
back_labelLayer
10
60.7018555
20
156.4052872
11
60.7018555
21
157.0759903
0
LINE
8
back_labelLayer
10
55.3460938
20
158.7330216
11
54.8430664
21
159.9856583
0
LINE
8
back_labelLayer
10
62.299707
20
157.3028458
11
62.299707
21
149.9251114
0
LINE
8
back_labelLayer
10
60.6624023
20
154.2649552
11
60.6624023
21
155.24142
0
LINE
8
back_labelLayer
10
60.6624023
20
155.24142
11
59.0250977
21
155.172377
0
ARC
8
back_labelLayer
10
55.3549729
20
155.6698358
40
6.7874494
50
314.7445018
51
321.7071669
0
ARC
8
back_labelLayer
10
57.0225524
20
153.9754438
40
4.4101236
50
304.8485577
51
314.8530904
0
ARC
8
back_labelLayer
10
57.823612
20
152.8352179
40
3.0166526
50
294.3932817
51
304.7371414
0
ARC
8
back_labelLayer
10
57.5499348
20
153.5443408
40
3.7757536
50
281.2979617
51
293.7313558
0
ARC
8
back_labelLayer
10
57.1881454
20
155.297772
40
5.5660962
50
272.9335329
51
281.4138858
0
ARC
8
back_labelLayer
10
57.0682315
20
157.0961168
40
7.3682735
50
269.9539129
51
273.1491004
0
ARC
8
back_labelLayer
10
57.0268093
20
154.7523764
40
5.0246559
50
258.6719562
51
270.4047544
0
ARC
8
back_labelLayer
10
56.6777899
20
153.0828174
40
3.3190965
50
238.3273264
51
258.91838
0
ARC
8
back_labelLayer
10
56.4372697
20
152.6440167
40
2.819478
50
227.7689412
51
237.8050243
0
ARC
8
back_labelLayer
10
56.3620417
20
152.538998
40
2.6911967
50
192.0827649
51
227.4520678
0
ARC
8
back_labelLayer
10
57.7495176
20
152.8810232
40
4.1197643
50
179.5457408
51
192.6949223
0
ARC
8
back_labelLayer
10
56.4605625
20
153.0301891
40
2.8330762
50
115.4904626
51
182.3568156
0
ARC
8
back_labelLayer
10
57.8793991
20
150.4277505
40
5.7950266
50
101.3568239
51
117.0798637
0
ARC
8
back_labelLayer
10
59.0188555
20
145.1029639
40
11.2401424
50
92.469631
51
101.70649
0
ARC
8
back_labelLayer
10
59.3463359
20
140.3598255
40
15.9934579
50
91.7164326
51
92.909543
0
ARC
8
back_labelLayer
10
55.9992161
20
157.1011623
40
4.7027067
50
359.6933134
51
8.0036021
0
ARC
8
back_labelLayer
10
57.7781391
20
157.3603156
40
2.9050421
50
7.8272796
51
20.6041716
0
ARC
8
back_labelLayer
10
58.7848186
20
157.7454199
40
1.8272447
50
20.4094397
51
41.4479558
0
ARC
8
back_labelLayer
10
58.9335593
20
157.8271804
40
1.6620505
50
42.7295308
51
71.0380557
0
ARC
8
back_labelLayer
10
58.5833801
20
156.8750366
40
2.6764018
50
70.5716418
51
83.992862
0
ARC
8
back_labelLayer
10
58.4160886
20
155.516127
40
4.0454291
50
83.6506817
51
90.1753056
0
ARC
8
back_labelLayer
10
58.4454338
20
154.2309948
40
5.3307057
50
90.4484524
51
103.766545
0
ARC
8
back_labelLayer
10
59.0723018
20
151.587474
40
8.0474858
50
103.6226636
51
112.4319995
0
ARC
8
back_labelLayer
10
60.1468166
20
148.8744114
40
10.9653605
50
112.2122341
51
115.9641076
0
ARC
8
back_labelLayer
10
58.4260601
20
153.3410403
40
7.5490921
50
106.3568608
51
118.3349873
0
ARC
8
back_labelLayer
10
58.7476369
20
152.3476594
40
8.5928776
50
104.516208
51
106.5489364
0
ARC
8
back_labelLayer
10
58.5117995
20
153.330264
40
7.5825488
50
90.0714504
51
104.6521077
0
ARC
8
back_labelLayer
10
58.5415578
20
153.9978505
40
6.9150674
50
81.5679776
51
90.324915
0
ARC
8
back_labelLayer
10
58.9413788
20
156.6025638
40
4.2799029
50
68.2273357
51
81.7494373
0
ARC
8
back_labelLayer
10
59.4982572
20
157.9881257
40
2.7866249
50
47.8683379
51
68.2933978
0
ARC
8
back_labelLayer
10
59.5886423
20
158.1685966
40
2.5927162
50
19.2330973
51
46.674113
0
ARC
8
back_labelLayer
10
58.0830008
20
157.6084954
40
4.1989549
50
6.3379143
51
19.6815297
0
ARC
8
back_labelLayer
10
55.8572939
20
157.3250312
40
6.4424515
50
359.8026939
51
6.6583605
0
ARC
8
back_labelLayer
10
57.4208998
20
155.5869778
40
4.507984
50
269.5792136
51
282.041346
0
ARC
8
back_labelLayer
10
57.749725
20
154.1284398
40
3.0129888
50
281.7121032
51
306.4593946
0
ARC
8
back_labelLayer
10
57.895532
20
153.8886514
40
2.7336025
50
306.9881259
51
313.8559462
0
ARC
8
back_labelLayer
10
57.8781863
20
153.8836851
40
2.7420857
50
314.1891946
51
347.4269896
0
ARC
8
back_labelLayer
10
56.5046046
20
154.2278994
40
4.1578221
50
346.917751
51
0.2824517
0
ARC
8
back_labelLayer
10
55.4755702
20
154.264945
40
5.1868322
50
359.8171943
51
0.0001122
0
ARC
8
back_labelLayer
10
59.4145679
20
143.1565545
40
12.0221329
50
91.856485
51
96.4478193
0
ARC
8
back_labelLayer
10
58.8724116
20
147.848037
40
7.2994525
50
96.354558
51
102.9952965
0
ARC
8
back_labelLayer
10
58.1364594
20
150.9748886
40
4.0872136
50
102.7995316
51
113.2433032
0
ARC
8
back_labelLayer
10
57.5297736
20
152.4258525
40
2.514639
50
113.5886712
51
121.6804853
0
ARC
8
back_labelLayer
10
57.1082578
20
153.0678128
40
1.7470978
50
120.9734155
51
172.4179755
0
ARC
8
back_labelLayer
10
57.9321306
20
152.9032501
40
2.5860534
50
171.2122245
51
180.2058487
0
ARC
8
back_labelLayer
10
57.6859153
20
152.8746266
40
2.3399014
50
179.526611
51
192.7787189
0
ARC
8
back_labelLayer
10
56.894364
20
152.6827512
40
1.525563
50
192.3264294
51
222.057989
0
ARC
8
back_labelLayer
10
56.8354906
20
152.647545
40
1.4583279
50
222.5804852
51
229.2546522
0
ARC
8
back_labelLayer
10
57.0344448
20
152.9036944
40
1.7823243
50
229.7836987
51
254.2724075
0
ARC
8
back_labelLayer
10
57.2994255
20
153.7867186
40
2.7041615
50
253.9396671
51
266.4533972
0
ARC
8
back_labelLayer
10
57.3839998
20
154.7615307
40
3.6824174
50
266.0782582
51
270.0590183
0
LINE
8
back_labelLayer
10
72.8830078
20
160.3703263
11
72.3799805
21
158.9796036
0
LINE
8
back_labelLayer
10
72.7251953
20
151.7399552
11
72.7251953
21
150.2900528
0
ARC
8
back_labelLayer
10
69.9408439
20
155.8468872
40
6.1192642
50
256.424367
51
270.488975
0
ARC
8
back_labelLayer
10
69.4518571
20
153.9384143
40
4.1494235
50
221.7976347
51
256.8020429
0
ARC
8
back_labelLayer
10
69.9253835
20
154.288284
40
4.7359447
50
196.0166597
51
221.1349233
0
ARC
8
back_labelLayer
10
72.3052891
20
155.0157068
40
7.2242993
50
183.5913723
51
196.3539604
0
ARC
8
back_labelLayer
10
74.9713609
20
155.2505809
40
9.9000775
50
179.938852
51
183.9815014
0
ARC
8
back_labelLayer
10
74.1051083
20
155.3193114
40
9.0340064
50
169.8978491
51
180.3688974
0
ARC
8
back_labelLayer
10
70.9601608
20
155.9010794
40
5.8358101
50
153.0875106
51
170.1051388
0
ARC
8
back_labelLayer
10
69.7669053
20
156.4712491
40
4.5138213
50
138.6550026
51
152.685349
0
ARC
8
back_labelLayer
10
69.544195
20
156.6335457
40
4.2394863
50
101.491291
51
138.313386
0
ARC
8
back_labelLayer
10
70.0554805
20
154.5056265
40
6.4270719
50
89.5891865
51
102.1787679
0
ARC
8
back_labelLayer
10
70.0947962
20
153.54384
40
7.3886964
50
77.7702468
51
89.9475303
0
ARC
8
back_labelLayer
10
69.9550029
20
152.7725446
40
8.1721447
50
74.679649
51
77.9578959
0
ARC
8
back_labelLayer
10
70.7103524
20
155.5090223
40
5.333339
50
70.0945959
51
74.7385946
0
ARC
8
back_labelLayer
10
71.4289187
20
157.4782646
40
3.2371022
50
63.5034356
51
70.1861364
0
ARC
8
back_labelLayer
10
71.7699736
20
158.1925427
40
2.4457283
50
62.929072
51
63.1885757
0
ARC
8
back_labelLayer
10
69.6903149
20
152.2106492
40
7.2837521
50
68.3294435
51
74.8831434
0
ARC
8
back_labelLayer
10
69.3060775
20
150.8482292
40
8.6992457
50
74.7801491
51
77.4497503
0
ARC
8
back_labelLayer
10
69.7094825
20
152.7417518
40
6.7633321
50
77.299902
51
81.7345199
0
ARC
8
back_labelLayer
10
70.0037396
20
154.7921246
40
4.6919564
50
81.6910331
51
87.5078799
0
ARC
8
back_labelLayer
10
70.0605205
20
155.853311
40
3.6293202
50
87.6749802
51
89.9749164
0
ARC
8
back_labelLayer
10
69.9809438
20
155.8517553
40
3.6317828
50
88.7194081
51
112.5667687
0
ARC
8
back_labelLayer
10
69.7228808
20
156.7049775
40
2.7463018
50
114.4265737
51
161.6632754
0
ARC
8
back_labelLayer
10
72.2864766
20
155.7015588
40
5.4973429
50
160.141841
51
175.136815
0
ARC
8
back_labelLayer
10
75.8149423
20
155.305338
40
9.0472021
50
174.5309737
51
180.154936
0
ARC
8
back_labelLayer
10
74.6970842
20
155.2399267
40
7.9294165
50
179.7041313
51
188.0743573
0
ARC
8
back_labelLayer
10
71.8409947
20
154.822051
40
5.042962
50
187.9315179
51
200.3885476
0
ARC
8
back_labelLayer
10
70.2966927
20
154.2499649
40
3.3961025
50
200.4183311
51
216.6392712
0
ARC
8
back_labelLayer
10
69.6492847
20
153.787149
40
2.6004628
50
216.969533
51
261.310307
0
ARC
8
back_labelLayer
10
69.9350002
20
155.1191903
40
3.9612126
50
260.1359195
51
270.2692243
0
ARC
8
back_labelLayer
10
69.9218128
20
158.0118965
40
6.8539487
50
270.2658381
51
286.2891519
0
ARC
8
back_labelLayer
10
69.5051333
20
159.5658291
40
8.4624525
50
286.0460777
51
292.3653812
0
ARC
8
back_labelLayer
10
70.6147935
20
154.4417164
40
4.6572638
50
282.0344167
51
296.9454502
0
ARC
8
back_labelLayer
10
70.1358227
20
156.6002447
40
6.8682429
50
272.5980434
51
282.1878519
0
ARC
8
back_labelLayer
10
69.9984678
20
158.7068988
40
8.9790546
50
269.9655337
51
272.8642714
0
LINE
8
back_labelLayer
10
76.8283203
20
155.4584122
11
76.9072266
21
155.4584122
0
LINE
8
back_labelLayer
10
78.1993164
20
157.0365372
11
81.690918
21
160.7352677
0
LINE
8
back_labelLayer
10
81.690918
20
160.7352677
11
83.6339844
21
160.7352677
0
LINE
8
back_labelLayer
10
83.6339844
20
160.7352677
11
79.2546875
21
156.1291153
0
LINE
8
back_labelLayer
10
79.2546875
20
156.1291153
11
83.9397461
21
149.9251114
0
LINE
8
back_labelLayer
10
83.9397461
20
149.9251114
11
81.9572266
21
149.9251114
0
LINE
8
back_labelLayer
10
81.9572266
20
149.9251114
11
78.1401367
21
155.0342911
0
LINE
8
back_labelLayer
10
78.1401367
20
155.0342911
11
76.9072266
21
153.9690567
0
LINE
8
back_labelLayer
10
76.9072266
20
153.9690567
11
76.9072266
21
149.9251114
0
LINE
8
back_labelLayer
10
76.9072266
20
149.9251114
11
75.2896484
21
149.9251114
0
LINE
8
back_labelLayer
10
75.2896484
20
149.9251114
11
75.2896484
21
165.272377
0
LINE
8
back_labelLayer
10
75.2896484
20
165.272377
11
76.9072266
21
165.272377
0
LINE
8
back_labelLayer
10
76.9072266
20
165.272377
11
76.9072266
21
157.13517
0
ARC
8
back_labelLayer
10
84.8184865
20
149.85849
40
9.6926344
50
142.3233842
51
144.7075361
0
ARC
8
back_labelLayer
10
89.9807508
20
145.8766998
40
16.2121143
50
140.4331742
51
142.3365215
0
ARC
8
back_labelLayer
10
96.7073161
20
140.3395111
40
24.9245748
50
139.27992
51
140.4703046
0
ARC
8
back_labelLayer
10
104.4842801
20
133.6518429
40
35.1815753
50
138.341773
51
139.2877203
0
ARC
8
back_labelLayer
10
65.9963349
20
157.1555967
40
10.9109108
50
358.2738978
51
359.8927347
0
ARC
8
back_labelLayer
10
57.5077702
20
157.3921469
40
19.4027587
50
357.5041839
51
358.3307316
0
ARC
8
back_labelLayer
10
44.8037661
20
157.9532785
40
32.1191478
50
356.6325046
51
357.4910097
0
ARC
8
back_labelLayer
10
23.6848543
20
159.1849825
40
53.2739455
50
356.0329476
51
356.6442799
0
ARC
8
back_labelLayer
10
7.3214369
20
160.293166
40
69.6748282
50
356.021034
51
356.0547715
0
LINE
8
right_outsideCutPath
10
132
20
208
11
132
21
172.125
0
LINE
8
right_outsideCutPath
10
132
20
172.125
11
129
21
172.125
0
LINE
8
right_outsideCutPath
10
129
20
172.125
11
129
21
142.875
0
LINE
8
right_outsideCutPath
10
129
20
142.875
11
132
21
142.875
0
LINE
8
right_outsideCutPath
10
132
20
142.875
11
132
21
113.625
0
LINE
8
right_outsideCutPath
10
132
20
113.625
11
132
21
107
0
LINE
8
right_outsideCutPath
10
132
20
107
11
147.375
21
107
0
LINE
8
right_outsideCutPath
10
147.375
20
107
11
147.375
21
110
0
LINE
8
right_outsideCutPath
10
147.375
20
110
11
176.625
21
110
0
LINE
8
right_outsideCutPath
10
176.625
20
110
11
176.625
21
107
0
LINE
8
right_outsideCutPath
10
176.625
20
107
11
192
21
107
0
LINE
8
right_outsideCutPath
10
192
20
107
11
192
21
142.875
0
LINE
8
right_outsideCutPath
10
192
20
142.875
11
195
21
142.875
0
LINE
8
right_outsideCutPath
10
195
20
142.875
11
195
21
172.125
0
LINE
8
right_outsideCutPath
10
195
20
172.125
11
192
21
172.125
0
LINE
8
right_outsideCutPath
10
192
20
172.125
11
192
21
201.375
0
LINE
8
right_outsideCutPath
10
192
20
201.375
11
192
21
208
0
LINE
8
right_outsideCutPath
10
192
20
208
11
176.625
21
208
0
LINE
8
right_outsideCutPath
10
176.625
20
208
11
176.625
21
205
0
LINE
8
right_outsideCutPath
10
176.625
20
205
11
147.375
21
205
0
LINE
8
right_outsideCutPath
10
147.375
20
205
11
147.375
21
208
0
LINE
8
right_outsideCutPath
10
147.375
20
208
11
132
21
208
0
LINE
8
right_labelLayer
10
152.4125976
20
161.1867577
11
152.2643555
21
160.1941796
0
LINE
8
right_labelLayer
10
149.4155273
20
157.8609765
11
149.4155273
21
154.0711327
0
LINE
8
right_labelLayer
10
149.4155273
20
154.0711327
11
148.3456055
21
154.0711327
0
LINE
8
right_labelLayer
10
148.3456055
20
154.0711327
11
148.3456055
21
161.1351952
0
LINE
8
right_labelLayer
10
148.3456055
20
161.1351952
11
149.2286133
21
161.1351952
0
LINE
8
right_labelLayer
10
149.2286133
20
161.1351952
11
149.3510742
21
159.8267968
0
LINE
8
right_labelLayer
10
149.3510742
20
159.8267968
11
149.4026367
21
159.8267968
0
ARC
8
right_labelLayer
10
151.5792416
20
156.3522728
40
4.911841
50
84.9922651
51
90.1280785
0
ARC
8
right_labelLayer
10
151.6972015
20
157.6738542
40
3.5850082
50
78.4892271
51
85.0266023
0
ARC
8
right_labelLayer
10
151.2393637
20
155.5915184
40
4.7154107
50
77.4453564
51
81.63603
0
ARC
8
right_labelLayer
10
151.4448075
20
157.0076317
40
3.2844762
50
81.5883987
51
87.1916634
0
ARC
8
right_labelLayer
10
151.4894279
20
157.7813274
40
2.5095323
50
87.34371
51
89.9659807
0
ARC
8
right_labelLayer
10
151.4790607
20
158.4370393
40
1.8538579
50
89.6335357
51
137.0880775
0
ARC
8
right_labelLayer
10
151.9340155
20
157.9254268
40
2.536242
50
135.6208907
51
138.8377349
0
ARC
8
right_labelLayer
10
151.8673648
20
157.9904859
40
2.443248
50
138.9575811
51
174.5422195
0
ARC
8
right_labelLayer
10
152.6630443
20
157.8659818
40
3.2475208
50
173.6907253
51
180.0883081
0
ARC
8
right_labelLayer
10
152.5505766
20
158.0532611
40
3.6131641
50
139.413931
51
150.603279
0
ARC
8
right_labelLayer
10
151.9027326
20
158.6083954
40
2.7600076
50
124.2321471
51
139.4161064
0
ARC
8
right_labelLayer
10
151.5563371
20
159.1312775
40
2.1328572
50
89.6796617
51
124.4405587
0
LINE
8
right_labelLayer
10
154.8038086
20
161.1351952
11
154.8038086
21
154.0711327
0
LINE
8
right_labelLayer
10
154.8038086
20
154.0711327
11
153.7338867
21
154.0711327
0
LINE
8
right_labelLayer
10
153.7338867
20
154.0711327
11
153.7338867
21
161.1351952
0
LINE
8
right_labelLayer
10
153.7338867
20
161.1351952
11
154.8038086
21
161.1351952
0
ARC
8
right_labelLayer
10
154.8292191
20
163.0567893
40
1.1855894
50
170.8451505
51
180.3545392
0
ARC
8
right_labelLayer
10
154.3853915
20
163.1309997
40
0.735613
50
155.9678972
51
171.0516138
0
ARC
8
right_labelLayer
10
154.1704174
20
163.2263713
40
0.5004336
50
133.7880452
51
155.9171383
0
ARC
8
right_labelLayer
10
154.2497852
20
163.1386255
40
0.618709
50
92.6446375
51
133.4710117
0
ARC
8
right_labelLayer
10
154.2748517
20
162.9418222
40
0.8166153
50
89.9690382
51
93.7644372
0
ARC
8
right_labelLayer
10
154.2850619
20
163.128129
40
0.6303841
50
46.370819
51
90.8879332
0
ARC
8
right_labelLayer
10
154.3477985
20
163.1928969
40
0.5402167
50
17.7252323
51
46.4472859
0
ARC
8
right_labelLayer
10
154.0552358
20
163.0921496
40
0.8495915
50
4.9428074
51
18.1901022
0
ARC
8
right_labelLayer
10
153.6830741
20
163.0519164
40
1.223862
50
359.8846768
51
5.3181621
0
ARC
8
right_labelLayer
10
153.7999617
20
163.0419356
40
1.1069974
50
349.8345137
51
0.3890867
0
ARC
8
right_labelLayer
10
154.2029767
20
162.966754
40
0.6970458
50
332.6322002
51
350.0706316
0
ARC
8
right_labelLayer
10
154.359832
20
162.8893005
40
0.5221518
50
313.6153739
51
332.2676774
0
ARC
8
right_labelLayer
10
154.2842381
20
162.9581314
40
0.6241723
50
269.1788544
51
314.280759
0
ARC
8
right_labelLayer
10
154.2682016
20
163.0136209
40
0.6796346
50
250.5000614
51
270.5978368
0
ARC
8
right_labelLayer
10
154.2476348
20
162.9367111
40
0.6003037
50
225.1301196
51
249.9001064
0
ARC
8
right_labelLayer
10
154.2154336
20
162.9011383
40
0.5523796
50
197.7934098
51
224.8941154
0
ARC
8
right_labelLayer
10
154.5168294
20
163.0044236
40
0.870943
50
184.9925981
51
198.2040724
0
ARC
8
right_labelLayer
10
154.9068335
20
163.0468176
40
1.2631839
50
179.8804611
51
185.3687206
0
LINE
8
right_labelLayer
10
160.4112305
20
161.1351952
11
162.8540039
21
161.1351952
0
LINE
8
right_labelLayer
10
162.8540039
20
161.1351952
11
162.8540039
21
160.4584374
0
LINE
8
right_labelLayer
10
162.8540039
20
160.4584374
11
161.5456055
21
160.3037499
0
LINE
8
right_labelLayer
10
159.1350586
20
155.1926171
11
160.3854492
21
155.1926171
0
LINE
8
right_labelLayer
10
160.0438476
20
154.2322655
11
158.7612305
21
154.2322655
0
ARC
8
right_labelLayer
10
160.1821518
20
159.224728
40
1.7387622
50
29.4584676
51
38.357696
0
ARC
8
right_labelLayer
10
159.4716522
20
158.8191326
40
2.5568744
50
23.1845307
51
29.5422431
0
ARC
8
right_labelLayer
10
158.7940046
20
158.5186099
40
3.2981239
50
21.250528
51
23.3490005
0
ARC
8
right_labelLayer
10
159.946033
20
158.9767739
40
2.0583901
50
6.8505034
51
20.9871469
0
ARC
8
right_labelLayer
10
159.3663507
20
158.898176
40
2.643324
50
359.8710388
51
7.0432586
0
ARC
8
right_labelLayer
10
159.5570595
20
158.8667224
40
2.452741
50
342.5649606
51
0.5957823
0
ARC
8
right_labelLayer
10
160.0094133
20
158.7418108
40
1.9838106
50
310.6097982
51
342.0923558
0
ARC
8
right_labelLayer
10
159.7557489
20
159.0368698
40
2.3729188
50
284.931568
51
310.6222733
0
ARC
8
right_labelLayer
10
159.4383119
20
160.149214
40
3.5295537
50
272.5335114
51
285.2579564
0
ARC
8
right_labelLayer
10
159.3566979
20
161.26405
40
4.6470195
50
269.9691924
51
272.9311971
0
ARC
8
right_labelLayer
10
159.3465707
20
160.0556027
40
3.43858
50
263.4836866
51
270.1271115
0
ARC
8
right_labelLayer
10
159.2905614
20
159.5235978
40
2.9036598
50
259.4963677
51
263.3903976
0
ARC
8
right_labelLayer
10
159.6372122
20
154.9781884
40
1.9038944
50
117.3935566
51
128.4095169
0
ARC
8
right_labelLayer
10
159.1470693
20
155.5862471
40
1.1229283
50
128.0881836
51
147.1400726
0
ARC
8
right_labelLayer
10
158.8830147
20
155.763447
40
0.8049956
50
147.5368922
51
180.2592487
0
ARC
8
right_labelLayer
10
158.6325082
20
155.7529509
40
0.5545232
50
179.2918258
51
198.3581591
0
ARC
8
right_labelLayer
10
158.5286884
20
155.7256654
40
0.4474452
50
199.229179
51
239.5690597
0
ARC
8
right_labelLayer
10
158.6147065
20
155.8445052
40
0.5936463
50
238.2200369
51
239.8461425
0
ARC
8
right_labelLayer
10
158.683453
20
155.9858988
40
0.7505288
50
240.7303317
51
254.5026579
0
ARC
8
right_labelLayer
10
158.8882945
20
156.6917804
40
1.485505
50
254.1637425
51
262.2122631
0
ARC
8
right_labelLayer
10
159.0505528
20
157.8251185
40
2.6303865
50
262.0556387
51
267.2082409
0
ARC
8
right_labelLayer
10
159.1289267
20
159.2626478
40
4.0700354
50
267.0918991
51
270.0863217
0
ARC
8
right_labelLayer
10
160.4088361
20
150.8130286
40
4.3796509
50
81.5744256
51
90.3059553
0
ARC
8
right_labelLayer
10
160.6490703
20
152.3797883
40
2.7946128
50
68.3671659
51
81.73993
0
ARC
8
right_labelLayer
10
160.9628432
20
153.1816767
40
1.9335343
50
52.1879189
51
68.2501305
0
ARC
8
right_labelLayer
10
161.1823892
20
153.4774983
40
1.5652498
50
8.6201376
51
51.8982483
0
ARC
8
right_labelLayer
10
160.4129129
20
153.3146829
40
2.3508803
50
359.7430602
51
9.7326669
0
ARC
8
right_labelLayer
10
160.4473693
20
153.2750239
40
2.3165833
50
340.5268658
51
0.7201558
0
ARC
8
right_labelLayer
10
160.7877296
20
153.190278
40
1.9677273
50
302.9903725
51
339.5494559
0
ARC
8
right_labelLayer
10
160.4302504
20
153.6445753
40
2.5439626
50
303.187166
51
304.1723328
0
ARC
8
right_labelLayer
10
160.0974528
20
154.2208268
40
3.2085975
50
286.2542184
51
302.5280129
0
ARC
8
right_labelLayer
10
159.4914766
20
156.219619
40
5.2971559
50
276.4939808
51
286.495354
0
ARC
8
right_labelLayer
10
159.1133853
20
159.3802323
40
8.4802713
50
269.7545103
51
276.6169718
0
ARC
8
right_labelLayer
10
159.0488151
20
156.8944634
40
5.9944909
50
262.5634618
51
270.2698797
0
ARC
8
right_labelLayer
10
158.7552126
20
154.7183106
40
3.7986538
50
251.2101983
51
262.7064188
0
ARC
8
right_labelLayer
10
158.3320389
20
153.476234
40
2.4864685
50
235.9668138
51
251.2229175
0
ARC
8
right_labelLayer
10
157.8835118
20
152.8363611
40
1.7052226
50
208.9036047
51
236.4231402
0
ARC
8
right_labelLayer
10
157.9246884
20
152.8191012
40
1.7332815
50
182.2079884
51
207.7461582
0
ARC
8
right_labelLayer
10
158.4489235
20
152.8714583
40
2.2593729
50
179.9785379
51
183.0225739
0
ARC
8
right_labelLayer
10
157.825261
20
152.9010064
40
1.635962
50
138.3916089
51
181.0052668
0
ARC
8
right_labelLayer
10
157.99802
20
152.7457484
40
1.8682315
50
113.81213
51
138.3496425
0
ARC
8
right_labelLayer
10
158.3257254
20
152.0380943
40
2.6479909
50
102.2870629
51
114.1172552
0
ARC
8
right_labelLayer
10
158.2227527
20
155.6358597
40
1.1104374
50
216.586123
51
245.4968935
0
ARC
8
right_labelLayer
10
158.3813293
20
155.7704319
40
1.3180471
50
215.4644968
51
217.1747162
0
ARC
8
right_labelLayer
10
158.1169405
20
155.5794788
40
0.9919207
50
182.1767578
51
215.3415426
0
ARC
8
right_labelLayer
10
158.3527379
20
155.6047673
40
1.2286168
50
179.9836888
51
182.9375784
0
ARC
8
right_labelLayer
10
158.3475951
20
155.615459
40
1.2235177
50
161.7225829
51
180.4843049
0
ARC
8
right_labelLayer
10
158.2130659
20
155.6521688
40
1.0842877
50
144.4962989
51
161.3350864
0
ARC
8
right_labelLayer
10
158.5716675
20
155.3849084
40
1.5314587
50
132.7259008
51
144.1479514
0
ARC
8
right_labelLayer
10
159.1463876
20
154.7711765
40
2.372261
50
125.221226
51
132.8655473
0
ARC
8
right_labelLayer
10
159.7241974
20
153.968817
40
3.3609897
50
121.2352085
51
125.379461
0
ARC
8
right_labelLayer
10
158.6998935
20
158.575184
40
1.8756589
50
215.1640807
51
247.4747955
0
ARC
8
right_labelLayer
10
159.0500408
20
158.8577647
40
2.3248355
50
212.4714321
51
215.8875458
0
ARC
8
right_labelLayer
10
158.9579466
20
158.7918779
40
2.2117747
50
183.0160764
51
212.3123105
0
ARC
8
right_labelLayer
10
159.443258
20
158.845976
40
2.6994107
50
179.9759458
51
183.6207521
0
ARC
8
right_labelLayer
10
159.8349238
20
158.873217
40
3.0911864
50
166.8195655
51
180.4839187
0
ARC
8
right_labelLayer
10
158.8094532
20
159.1321272
40
2.0337759
50
132.3287733
51
167.3340936
0
ARC
8
right_labelLayer
10
158.9466486
20
158.9349203
40
2.2721712
50
106.2189113
51
131.5377547
0
ARC
8
right_labelLayer
10
159.2937742
20
157.8109561
40
3.4484128
50
93.6329807
51
106.5408846
0
ARC
8
right_labelLayer
10
159.4070932
20
156.5387618
40
4.7253424
50
89.9379939
51
94.0267949
0
ARC
8
right_labelLayer
10
159.4254468
20
157.1630777
40
4.1010451
50
82.5851933
51
90.1849733
0
ARC
8
right_labelLayer
10
159.5507573
20
158.1326106
40
3.1234482
50
74.0088891
51
82.5694655
0
ARC
8
right_labelLayer
10
158.2952621
20
152.8705815
40
1.0745607
50
179.2207697
51
200.9355303
0
ARC
8
right_labelLayer
10
158.1674748
20
152.8409928
40
0.9448089
50
202.0286996
51
236.1457474
0
ARC
8
right_labelLayer
10
158.3599905
20
153.0854126
40
1.2552603
50
235.0632601
51
238.5043035
0
ARC
8
right_labelLayer
10
158.5839579
20
153.4854332
40
1.7134526
50
239.10662
51
254.4862781
0
ARC
8
right_labelLayer
10
158.8824746
20
154.5147084
40
2.7850989
50
254.2323892
51
263.4937204
0
ARC
8
right_labelLayer
10
159.0699848
20
156.1028895
40
4.3843029
50
263.4108357
51
270.1457733
0
ARC
8
right_labelLayer
10
159.0899364
20
157.0925697
40
5.3739762
50
269.9062092
51
270.0000532
0
ARC
8
right_labelLayer
10
159.1155811
20
158.9111539
40
7.192606
50
269.7957559
51
275.3990907
0
ARC
8
right_labelLayer
10
159.384779
20
156.1475543
40
4.4159448
50
275.2956874
51
283.3516091
0
ARC
8
right_labelLayer
10
159.8233548
20
154.3411496
40
2.5571042
50
283.1370557
51
295.8573147
0
ARC
8
right_labelLayer
10
160.1483138
20
153.6317185
40
1.7770556
50
296.4047973
51
301.8008369
0
ARC
8
right_labelLayer
10
160.2757369
20
153.4560783
40
1.560713
50
301.2230605
51
318.6238054
0
ARC
8
right_labelLayer
10
160.5631092
20
153.1906211
40
1.1696421
50
319.0765436
51
1.140711
0
ARC
8
right_labelLayer
10
160.2849931
20
153.2253736
40
1.4475718
50
359.5461045
51
10.9905029
0
ARC
8
right_labelLayer
10
160.84414
20
153.3391046
40
0.8770126
50
10.6608634
51
30.936205
0
ARC
8
right_labelLayer
10
161.0214239
20
153.437491
40
0.674404
50
31.5095641
51
58.0777245
0
ARC
8
right_labelLayer
10
160.8552643
20
153.1399734
40
1.0149174
50
58.9972385
51
73.8586304
0
ARC
8
right_labelLayer
10
160.5194188
20
152.0405209
40
2.1644623
50
73.4099651
51
81.5907456
0
ARC
8
right_labelLayer
10
160.2348547
20
150.1990194
40
4.0277993
50
81.4172222
51
86.5756799
0
ARC
8
right_labelLayer
10
160.0604727
20
147.424546
40
6.80774
50
86.5053952
51
90.1399213
0
ARC
8
right_labelLayer
10
158.7459283
20
151.7728723
40
2.4594409
50
89.6435143
51
100.0209019
0
ARC
8
right_labelLayer
10
158.5913489
20
152.6137775
40
1.604477
50
99.8103048
51
116.8229762
0
ARC
8
right_labelLayer
10
158.4407734
20
152.9313205
40
1.2531869
50
117.2304514
51
130.5022956
0
ARC
8
right_labelLayer
10
158.3634587
20
153.0306889
40
1.1274295
50
130.7944655
51
169.0413473
0
ARC
8
right_labelLayer
10
158.9327824
20
152.8966113
40
1.7120195
50
168.258069
51
180.3820629
0
ARC
8
right_labelLayer
10
159.8892889
20
158.8569175
40
2.0884711
50
179.5617877
51
191.6528704
0
ARC
8
right_labelLayer
10
159.1631478
20
158.7000338
40
1.3456267
50
191.3555382
51
213.3660094
0
ARC
8
right_labelLayer
10
158.988753
20
158.5993343
40
1.1446543
50
213.9573159
51
227.7972354
0
ARC
8
right_labelLayer
10
159.1404792
20
158.7833503
40
1.3829369
50
228.2620659
51
254.734122
0
ARC
8
right_labelLayer
10
159.3343058
20
159.4477959
40
2.0750062
50
254.4016747
51
267.4348539
0
ARC
8
right_labelLayer
10
159.384869
20
160.1257903
40
2.754658
50
267.015351
51
270.0323809
0
ARC
8
right_labelLayer
10
159.4179259
20
159.7017956
40
2.3308758
50
269.2256641
51
284.3773198
0
ARC
8
right_labelLayer
10
159.7356204
20
158.5949453
40
1.1802635
50
282.7796594
51
346.48285
0
ARC
8
right_labelLayer
10
158.7857903
20
158.8639904
40
2.1670304
50
345.4362358
51
0.7465755
0
ARC
8
right_labelLayer
10
158.6522829
20
158.9251254
40
2.300589
50
359.1806298
51
15.0431794
0
ARC
8
right_labelLayer
10
159.6947202
20
159.2292158
40
1.2151696
50
13.9535592
51
77.6673892
0
ARC
8
right_labelLayer
10
159.3956333
20
158.1574111
40
2.3269825
50
76.1095325
51
90.7028249
0
ARC
8
right_labelLayer
10
159.3508658
20
158.2392838
40
2.2449935
50
89.5859332
51
101.3334313
0
ARC
8
right_labelLayer
10
159.1904302
20
159.0044853
40
1.4632013
50
101.0620276
51
121.9739081
0
ARC
8
right_labelLayer
10
159.0776785
20
159.2073183
40
1.2314905
50
122.5210891
51
134.9966859
0
ARC
8
right_labelLayer
10
159.1241011
20
159.1795045
40
1.2840503
50
135.5839719
51
163.0016124
0
ARC
8
right_labelLayer
10
159.8021775
20
158.9572547
40
1.9975284
50
162.5912027
51
175.734331
0
ARC
8
right_labelLayer
10
160.6154716
20
158.877137
40
2.8145958
50
175.3393668
51
180.0864432
0
LINE
8
right_labelLayer
10
170.2081055
20
154.0711327
11
169.1381836
21
154.0711327
0
LINE
8
right_labelLayer
10
169.1381836
20
154.0711327
11
169.1381836
21
158.6408593
0
LINE
8
right_labelLayer
10
165.3741211
20
157.7642968
11
165.3741211
21
154.0711327
0
LINE
8
right_labelLayer
10
165.3741211
20
154.0711327
11
164.3041992
21
154.0711327
0
LINE
8
right_labelLayer
10
164.3041992
20
154.0711327
11
164.3041992
21
164.100039
0
LINE
8
right_labelLayer
10
164.3041992
20
164.100039
11
165.3741211
21
164.100039
0
LINE
8
right_labelLayer
10
165.3741211
20
164.100039
11
165.3741211
21
161.0642968
0
LINE
8
right_labelLayer
10
165.3225586
20
160.1555077
11
165.3870117
21
160.1555077
0
LINE
8
right_labelLayer
10
170.2081055
20
158.6795311
11
170.2081055
21
154.0711327
0
ARC
8
right_labelLayer
10
166.1138478
20
158.6582051
40
3.0243856
50
359.6713885
51
8.6877441
0
ARC
8
right_labelLayer
10
167.2347622
20
158.835976
40
1.8894909
50
8.4931336
51
22.6579868
0
ARC
8
right_labelLayer
10
167.8042688
20
159.0726449
40
1.272767
50
22.7024535
51
42.3419383
0
ARC
8
right_labelLayer
10
167.8682872
20
159.1014436
40
1.2062486
50
43.3790754
51
71.5386255
0
ARC
8
right_labelLayer
10
167.6289006
20
158.4325359
40
1.9165986
50
71.0828106
51
84.369117
0
ARC
8
right_labelLayer
10
167.5214414
20
157.518873
40
2.8364493
50
84.0198048
51
90.1510256
0
ARC
8
right_labelLayer
10
167.4909054
20
157.1176672
40
3.2377273
50
89.5919293
51
100.3595371
0
ARC
8
right_labelLayer
10
167.2616445
20
158.3224565
40
2.0113706
50
100.106781
51
118.084738
0
ARC
8
right_labelLayer
10
167.0284697
20
158.7800045
40
1.4979557
50
118.4551482
51
139.6706063
0
ARC
8
right_labelLayer
10
167.2625633
20
158.6199987
40
1.7802115
50
140.6208292
51
160.5049037
0
ARC
8
right_labelLayer
10
168.4964913
20
158.1632013
40
3.0959009
50
160.1566906
51
171.5313071
0
ARC
8
right_labelLayer
10
170.4930477
20
157.8468714
40
5.1173082
50
171.3202535
51
178.3406865
0
ARC
8
right_labelLayer
10
172.2795866
20
157.7670639
40
6.905466
50
178.1080151
51
180.0229594
0
ARC
8
right_labelLayer
10
155.7492328
20
161.052824
40
9.6248951
50
357.8674535
51
0.0682962
0
ARC
8
right_labelLayer
10
159.0187593
20
160.9280988
40
6.3529925
50
354.9829236
51
357.8942864
0
ARC
8
right_labelLayer
10
161.1783976
20
160.7400492
40
4.1851832
50
351.9712909
51
354.9618818
0
ARC
8
right_labelLayer
10
167.1992786
20
159.0218715
40
2.1376254
50
119.831596
51
147.9725822
0
ARC
8
right_labelLayer
10
167.458132
20
158.6242184
40
2.6114902
50
116.6657953
51
120.4182688
0
ARC
8
right_labelLayer
10
167.5064537
20
158.4972833
40
2.7466451
50
96.6652655
51
116.378246
0
ARC
8
right_labelLayer
10
167.6105872
20
157.7788401
40
3.4723769
50
89.8927038
51
96.995953
0
ARC
8
right_labelLayer
10
167.643887
20
156.91046
40
4.3408335
50
80.6863073
51
90.3537049
0
ARC
8
right_labelLayer
10
167.9141784
20
158.500269
40
2.7282554
50
65.6022694
51
80.8844299
0
ARC
8
right_labelLayer
10
168.2387414
20
159.2312569
40
1.9284884
50
46.7401004
51
65.4130636
0
ARC
8
right_labelLayer
10
168.2608021
20
159.3009102
40
1.862914
50
19.2204207
51
45.7660629
0
ARC
8
right_labelLayer
10
167.1866303
20
158.9027059
40
3.008384
50
6.4733852
51
19.6467974
0
ARC
8
right_labelLayer
10
165.5815563
20
158.696125
40
4.6265787
50
359.794501
51
6.774383
0
LINE
8
right_labelLayer
10
175.6543945
20
154.9541405
11
175.6543945
21
154.1355858
0
LINE
8
right_labelLayer
10
172.4833008
20
156.1014061
11
172.4833008
21
160.3037499
0
LINE
8
right_labelLayer
10
172.4833008
20
160.3037499
11
171.4713867
21
160.3037499
0
LINE
8
right_labelLayer
10
171.4713867
20
160.3037499
11
171.4713867
21
160.8193749
0
LINE
8
right_labelLayer
10
171.4713867
20
160.8193749
11
172.4833008
21
161.2641015
0
LINE
8
right_labelLayer
10
172.4833008
20
161.2641015
11
172.9344726
21
162.7723046
0
LINE
8
right_labelLayer
10
172.9344726
20
162.7723046
11
173.5532226
21
162.7723046
0
LINE
8
right_labelLayer
10
173.5532226
20
162.7723046
11
173.5532226
21
161.1351952
0
LINE
8
right_labelLayer
10
173.5532226
20
161.1351952
11
175.602832
21
161.1351952
0
LINE
8
right_labelLayer
10
175.602832
20
161.1351952
11
175.602832
21
160.3037499
0
LINE
8
right_labelLayer
10
175.602832
20
160.3037499
11
173.5532226
21
160.3037499
0
LINE
8
right_labelLayer
10
173.5532226
20
160.3037499
11
173.5532226
21
156.1465233
0
ARC
8
right_labelLayer
10
174.6949338
20
158.3390121
40
3.5137855
50
269.8803761
51
278.302816
0
ARC
8
right_labelLayer
10
174.7282742
20
158.0665212
40
3.2393424
50
278.4152745
51
279.0077046
0
ARC
8
right_labelLayer
10
174.3339969
20
160.5851011
40
5.7885943
50
278.9590813
51
280.5103253
0
ARC
8
right_labelLayer
10
174.7098944
20
158.5681231
40
3.7368889
50
280.4847473
51
282.6269053
0
ARC
8
right_labelLayer
10
175.0393905
20
157.1043051
40
2.2364467
50
282.5875991
51
285.5794264
0
ARC
8
right_labelLayer
10
175.2051799
20
156.4946075
40
1.6046283
50
285.7240669
51
286.2571801
0
ARC
8
right_labelLayer
10
175.2045643
20
155.0870042
40
1.0523992
50
287.9888923
51
295.3047629
0
ARC
8
right_labelLayer
10
174.9507404
20
155.8549448
40
1.861194
50
283.3069561
51
288.1197571
0
ARC
8
right_labelLayer
10
174.6825708
20
156.9735875
40
3.0115282
50
280.007099
51
283.3734286
0
ARC
8
right_labelLayer
10
174.5033417
20
157.9461655
40
4.0004614
50
279.186246
51
280.1144784
0
ARC
8
right_labelLayer
10
174.3930789
20
158.5733572
40
4.63722
50
275.5260099
51
279.2940002
0
ARC
8
right_labelLayer
10
174.5171686
20
157.2772177
40
3.3351549
50
270.893237
51
275.5483794
0
ARC
8
right_labelLayer
10
174.5327594
20
156.6846447
40
2.7424183
50
270.0031494
51
270.7605472
0
ARC
8
right_labelLayer
10
174.4897355
20
156.7363709
40
2.794478
50
253.7847875
51
270.885254
0
ARC
8
right_labelLayer
10
174.158664
20
155.6072925
40
1.6178665
50
190.3817637
51
253.8772416
0
ARC
8
right_labelLayer
10
175.8461364
20
156.0635544
40
3.3630487
50
179.3551107
51
192.8477504
0
ARC
8
right_labelLayer
10
175.7076627
20
156.1330498
40
2.1544822
50
179.6416866
51
189.7505529
0
ARC
8
right_labelLayer
10
174.9470753
20
155.9973905
40
1.3819155
50
189.5479184
51
205.7873815
0
ARC
8
right_labelLayer
10
174.6345154
20
155.8532583
40
1.0377981
50
206.1294056
51
221.408409
0
ARC
8
right_labelLayer
10
174.5994714
20
155.8266676
40
0.9939322
50
221.5949245
51
262.3505174
0
ARC
8
right_labelLayer
10
174.6828238
20
156.2553038
40
1.4300775
50
261.3266514
51
270.1912627
0
LINE
8
bottom_outsideCutPath
10
201
20
135
11
201
21
119.625
0
LINE
8
bottom_outsideCutPath
10
201
20
119.625
11
198
21
119.625
0
LINE
8
bottom_outsideCutPath
10
198
20
119.625
11
198
21
90.375
0
LINE
8
bottom_outsideCutPath
10
198
20
90.375
11
201
21
90.375
0
LINE
8
bottom_outsideCutPath
10
201
20
90.375
11
201
21
75
0
LINE
8
bottom_outsideCutPath
10
201
20
75
11
217.125
21
75
0
LINE
8
bottom_outsideCutPath
10
217.125
20
75
11
217.125
21
72
0
LINE
8
bottom_outsideCutPath
10
217.125
20
72
11
246.375
21
72
0
LINE
8
bottom_outsideCutPath
10
246.375
20
72
11
246.375
21
75
0
LINE
8
bottom_outsideCutPath
10
246.375
20
75
11
275.625
21
75
0
LINE
8
bottom_outsideCutPath
10
275.625
20
75
11
275.625
21
72
0
LINE
8
bottom_outsideCutPath
10
275.625
20
72
11
304.875
21
72
0
LINE
8
bottom_outsideCutPath
10
304.875
20
72
11
304.875
21
75
0
LINE
8
bottom_outsideCutPath
10
304.875
20
75
11
321
21
75
0
LINE
8
bottom_outsideCutPath
10
321
20
75
11
321
21
90.375
0
LINE
8
bottom_outsideCutPath
10
321
20
90.375
11
324
21
90.375
0
LINE
8
bottom_outsideCutPath
10
324
20
90.375
11
324
21
119.625
0
LINE
8
bottom_outsideCutPath
10
324
20
119.625
11
321
21
119.625
0
LINE
8
bottom_outsideCutPath
10
321
20
119.625
11
321
21
135
0
LINE
8
bottom_outsideCutPath
10
321
20
135
11
304.875
21
135
0
LINE
8
bottom_outsideCutPath
10
304.875
20
135
11
304.875
21
138
0
LINE
8
bottom_outsideCutPath
10
304.875
20
138
11
275.625
21
138
0
LINE
8
bottom_outsideCutPath
10
275.625
20
138
11
275.625
21
135
0
LINE
8
bottom_outsideCutPath
10
275.625
20
135
11
246.375
21
135
0
LINE
8
bottom_outsideCutPath
10
246.375
20
135
11
246.375
21
138
0
LINE
8
bottom_outsideCutPath
10
246.375
20
138
11
217.125
21
138
0
LINE
8
bottom_outsideCutPath
10
217.125
20
138
11
217.125
21
135
0
LINE
8
bottom_outsideCutPath
10
217.125
20
135
11
201
21
135
0
LINE
8
bottom_labelLayer
10
240.3556328
20
100.9589558
11
240.278289
21
100.9589558
0
LINE
8
bottom_labelLayer
10
240.278289
20
100.9589558
11
240.0527031
21
100.0501668
0
LINE
8
bottom_labelLayer
10
240.0527031
20
100.0501668
11
239.2857109
21
100.0501668
0
LINE
8
bottom_labelLayer
10
239.2857109
20
100.0501668
11
239.2857109
21
110.079073
0
LINE
8
bottom_labelLayer
10
239.2857109
20
110.079073
11
240.3556328
21
110.079073
0
LINE
8
bottom_labelLayer
10
240.3556328
20
110.079073
11
240.3556328
21
107.6427449
0
LINE
8
bottom_labelLayer
10
240.3040703
20
106.1732136
11
240.3556328
21
106.1732136
0
ARC
8
bottom_labelLayer
10
242.6049171
20
103.9603503
40
3.2700522
50
74.2393405
51
90.5623897
0
ARC
8
bottom_labelLayer
10
242.821143
20
104.7535868
40
2.4479174
50
38.5631382
51
74.0670322
0
ARC
8
bottom_labelLayer
10
242.2646915
20
104.3209144
40
3.1527483
50
16.4709444
51
38.4075213
0
ARC
8
bottom_labelLayer
10
240.661642
20
103.818246
40
4.8326139
50
5.1338578
51
16.7973379
0
ARC
8
bottom_labelLayer
10
238.6379431
20
103.6032769
40
6.8675097
50
359.8779122
51
5.4093489
0
ARC
8
bottom_labelLayer
10
239.2323386
20
103.5516342
40
6.273208
50
350.6562816
51
0.338022
0
ARC
8
bottom_labelLayer
10
241.4192807
20
103.1796599
40
4.0549072
50
335.830607
51
350.825476
0
ARC
8
bottom_labelLayer
10
242.38128
20
102.7644486
40
3.0072731
50
321.3161497
51
335.5436112
0
ARC
8
bottom_labelLayer
10
242.749059
20
102.4647646
40
2.5328764
50
274.0640044
51
321.4081055
0
ARC
8
bottom_labelLayer
10
242.577722
20
103.5501166
40
3.6288593
50
269.9226077
51
275.5481159
0
ARC
8
bottom_labelLayer
10
242.5547767
20
103.166514
40
3.2453036
50
255.7755475
51
270.3185603
0
ARC
8
bottom_labelLayer
10
242.4621674
20
102.7550539
40
2.8237252
50
245.9801596
51
255.5455609
0
ARC
8
bottom_labelLayer
10
242.2827837
20
102.337898
40
2.3696819
50
215.5850115
51
245.8361846
0
ARC
8
bottom_labelLayer
10
218.0486898
20
107.6238866
40
22.306951
50
358.1123137
51
0.048438
0
ARC
8
bottom_labelLayer
10
224.256967
20
107.4154571
40
16.0951776
50
355.7238606
51
358.1258885
0
ARC
8
bottom_labelLayer
10
226.9201422
20
107.2331272
40
13.4258314
50
355.4720246
51
355.6523648
0
ARC
8
bottom_labelLayer
10
242.3509908
20
104.7817966
40
2.4325902
50
95.1835198
51
145.1108936
0
ARC
8
bottom_labelLayer
10
242.5648059
20
103.576069
40
3.6541847
50
89.8743383
51
96.8145316
0
ARC
8
bottom_labelLayer
10
242.3957334
20
103.3278606
40
3.0065693
50
89.5731341
51
100.732429
0
ARC
8
bottom_labelLayer
10
242.1731634
20
104.4523606
40
1.8603151
50
100.446944
51
119.670076
0
ARC
8
bottom_labelLayer
10
241.9667728
20
104.8382309
40
1.4229198
50
120.1402716
51
142.4248952
0
ARC
8
bottom_labelLayer
10
242.3082283
20
104.6123468
40
1.8315188
50
143.3382262
51
161.2559831
0
ARC
8
bottom_labelLayer
10
243.7361372
20
104.105392
40
3.346669
50
160.8926429
51
171.2334032
0
ARC
8
bottom_labelLayer
10
246.1198339
20
103.7208456
40
5.7611508
50
171.0667667
51
177.845679
0
ARC
8
bottom_labelLayer
10
248.598851
20
103.5947628
40
8.2432205
50
177.6176648
51
180.0425342
0
ARC
8
bottom_labelLayer
10
247.4298295
20
103.5610214
40
7.0742507
50
179.7762837
51
185.7075293
0
ARC
8
bottom_labelLayer
10
244.6407019
20
103.2736432
40
4.2703789
50
185.5925007
51
194.2050732
0
ARC
8
bottom_labelLayer
10
242.8540191
20
102.809937
40
2.4245615
50
193.9430489
51
208.021819
0
ARC
8
bottom_labelLayer
10
242.1311319
20
102.4421872
40
1.6137171
50
208.5536995
51
217.5604848
0
ARC
8
bottom_labelLayer
10
242.0722201
20
102.41768
40
1.552165
50
218.1690303
51
253.8047374
0
ARC
8
bottom_labelLayer
10
242.3601166
20
103.3052889
40
2.4850166
50
253.1382209
51
266.8483326
0
ARC
8
bottom_labelLayer
10
242.4408489
20
104.2573323
40
3.4401747
50
266.3775337
51
270.05105
0
ARC
8
bottom_labelLayer
10
242.4667376
20
102.949917
40
2.1328801
50
269.3868766
51
285.8630419
0
ARC
8
bottom_labelLayer
10
242.6251958
20
102.3772222
40
1.5386873
50
286.0163047
51
326.8497265
0
ARC
8
bottom_labelLayer
10
241.8603919
20
102.8838775
40
2.4560763
50
326.7104851
51
343.6661816
0
ARC
8
bottom_labelLayer
10
240.4287124
20
103.3213526
40
3.9530422
50
343.4171348
51
353.6369071
0
ARC
8
bottom_labelLayer
10
238.2663386
20
103.5779343
40
6.1305505
50
353.4934671
51
0.2205614
0
ARC
8
bottom_labelLayer
10
238.0757129
20
103.6271206
40
6.3211826
50
359.7680798
51
6.3095323
0
ARC
8
bottom_labelLayer
10
240.4567825
20
103.9003648
40
3.9245189
50
6.1648468
51
16.0396614
0
ARC
8
bottom_labelLayer
10
241.9906074
20
104.3523838
40
2.3255351
50
15.777954
51
32.0151096
0
ARC
8
bottom_labelLayer
10
242.469051
20
104.6263859
40
1.7747265
50
32.7032572
51
35.5243448
0
ARC
8
bottom_labelLayer
10
242.6438545
20
104.7506324
40
1.5602661
50
35.5408349
51
79.8011296
0
ARC
8
bottom_labelLayer
10
242.4343264
20
103.8598916
40
2.4745079
50
78.6781131
51
90.3749554
0
ARC
8
bottom_labelLayer
10
247.9453951
20
103.5513848
40
5.5265742
50
349.1761812
51
0.3862746
0
ARC
8
bottom_labelLayer
10
249.8060501
20
103.1804593
40
3.6293963
50
330.2507213
51
349.4116339
0
ARC
8
bottom_labelLayer
10
250.3786755
20
102.882832
40
2.9846667
50
318.1439746
51
329.7566222
0
ARC
8
bottom_labelLayer
10
250.4820254
20
102.8000075
40
2.8524329
50
278.8959152
51
317.9979111
0
ARC
8
bottom_labelLayer
10
250.2157309
20
104.0758571
40
4.154636
50
269.7503033
51
279.8033029
0
ARC
8
bottom_labelLayer
10
250.1725439
20
103.3569884
40
3.4358194
50
253.5437043
51
270.4182562
0
ARC
8
bottom_labelLayer
10
250.0581748
20
102.9145747
40
2.9791706
50
238.8115666
51
253.2428243
0
ARC
8
bottom_labelLayer
10
250.02126
20
102.84034
40
2.8965569
50
207.794695
51
238.675806
0
ARC
8
bottom_labelLayer
10
250.5510428
20
103.1647941
40
3.5167372
50
205.6560725
51
208.4460699
0
ARC
8
bottom_labelLayer
10
250.958881
20
103.3347156
40
3.9580062
50
188.9102518
51
205.3171589
0
ARC
8
bottom_labelLayer
10
252.3337558
20
103.5675751
40
5.3523833
50
179.7744697
51
189.0932914
0
ARC
8
bottom_labelLayer
10
252.5365748
20
103.6262702
40
5.5552882
50
169.2442999
51
180.3880768
0
ARC
8
bottom_labelLayer
10
250.65004
20
103.9991697
40
3.6323333
50
150.7111465
51
169.4695478
0
ARC
8
bottom_labelLayer
10
250.0477986
20
104.3084438
40
2.9558836
50
138.1759407
51
150.2287542
0
ARC
8
bottom_labelLayer
10
249.9476234
20
104.3853165
40
2.8299872
50
99.1759308
51
137.9832764
0
ARC
8
bottom_labelLayer
10
250.2233522
20
103.0877012
40
4.1554796
50
89.7326506
51
100.0759692
0
ARC
8
bottom_labelLayer
10
250.2784593
20
103.6481045
40
3.5952084
50
73.5222701
51
90.5692234
0
ARC
8
bottom_labelLayer
10
250.4892981
20
104.4141344
40
2.8008772
50
41.1445621
51
73.2133952
0
ARC
8
bottom_labelLayer
10
250.0868266
20
104.0682149
40
3.3315634
50
13.5014283
51
41.0703498
0
ARC
8
bottom_labelLayer
10
248.5318818
20
103.6613057
40
4.9386447
50
1.1277157
51
13.8800066
0
ARC
8
bottom_labelLayer
10
247.1930172
20
103.5895384
40
6.2788265
50
359.9918326
51
1.5420332
0
ARC
8
bottom_labelLayer
10
253.5080161
20
103.5608397
40
5.4180796
50
179.7059773
51
187.9160682
0
ARC
8
bottom_labelLayer
10
251.5208243
20
103.2753833
40
3.4105224
50
187.7639376
51
200.0976932
0
ARC
8
bottom_labelLayer
10
250.4260981
20
102.8742737
40
2.2446263
50
200.084588
51
216.9131349
0
ARC
8
bottom_labelLayer
10
250.0263393
20
102.5888282
40
1.7536007
50
217.3009502
51
261.7098985
0
ARC
8
bottom_labelLayer
10
250.2119205
20
103.4744106
40
2.6572765
50
260.5033347
51
270.2476534
0
ARC
8
bottom_labelLayer
10
250.2473413
20
103.3021925
40
2.4851488
50
269.4481605
51
284.7255968
0
ARC
8
bottom_labelLayer
10
250.4440766
20
102.5725706
40
1.7294905
50
284.5662222
51
322.6333881
0
ARC
8
bottom_labelLayer
10
249.9841005
20
102.904883
40
2.296799
50
323.0089264
51
342.6390566
0
ARC
8
bottom_labelLayer
10
248.6684697
20
103.3348699
40
3.680842
50
342.3615623
51
353.753754
0
ARC
8
bottom_labelLayer
10
246.7275014
20
103.5688296
40
5.6357833
50
353.5362928
51
0.2014353
0
ARC
8
bottom_labelLayer
10
247.0248687
20
103.6158919
40
5.3384508
50
359.7075496
51
7.8972654
0
ARC
8
bottom_labelLayer
10
248.979946
20
103.8961689
40
3.363418
50
7.7440078
51
20.0690035
0
ARC
8
bottom_labelLayer
10
250.0694072
20
104.295959
40
2.2029209
50
20.0257125
51
37.4350451
0
ARC
8
bottom_labelLayer
10
250.4308805
20
104.5524544
40
1.760055
50
37.9577734
51
80.400608
0
ARC
8
bottom_labelLayer
10
250.2254679
20
103.635918
40
2.6984698
50
79.3453612
51
90.3174804
0
ARC
8
bottom_labelLayer
10
250.1874338
20
103.7881582
40
2.5462929
50
89.4806145
51
103.8805048
0
ARC
8
bottom_labelLayer
10
249.9734786
20
104.6028983
40
1.7040615
50
103.4685193
51
142.311897
0
ARC
8
bottom_labelLayer
10
250.3894237
20
104.3103762
40
2.2121745
50
142.9025821
51
162.3749596
0
ARC
8
bottom_labelLayer
10
251.7000763
20
103.8736062
40
3.5936036
50
162.0653373
51
173.167465
0
ARC
8
bottom_labelLayer
10
253.7436817
20
103.6129556
40
5.6537263
50
173.0085991
51
180.2463852
0
LINE
8
bottom_labelLayer
10
258.5958672
20
100.9331746
11
258.5958672
21
100.1146199
0
LINE
8
bottom_labelLayer
10
255.4247734
20
102.0804402
11
255.4247734
21
106.282784
0
LINE
8
bottom_labelLayer
10
255.4247734
20
106.282784
11
254.4128593
21
106.282784
0
LINE
8
bottom_labelLayer
10
254.4128593
20
106.282784
11
254.4128593
21
106.798409
0
LINE
8
bottom_labelLayer
10
254.4128593
20
106.798409
11
255.4247734
21
107.2431355
0
LINE
8
bottom_labelLayer
10
255.4247734
20
107.2431355
11
255.8759453
21
108.7513386
0
LINE
8
bottom_labelLayer
10
255.8759453
20
108.7513386
11
256.4946953
21
108.7513386
0
LINE
8
bottom_labelLayer
10
256.4946953
20
108.7513386
11
256.4946953
21
107.1142293
0
LINE
8
bottom_labelLayer
10
256.4946953
20
107.1142293
11
258.5443047
21
107.1142293
0
LINE
8
bottom_labelLayer
10
258.5443047
20
107.1142293
11
258.5443047
21
106.282784
0
LINE
8
bottom_labelLayer
10
258.5443047
20
106.282784
11
256.4946953
21
106.282784
0
LINE
8
bottom_labelLayer
10
256.4946953
20
106.282784
11
256.4946953
21
102.1255574
0
ARC
8
bottom_labelLayer
10
257.6364065
20
104.3180462
40
3.5137855
50
269.8803761
51
278.302816
0
ARC
8
bottom_labelLayer
10
257.6697468
20
104.0455552
40
3.2393424
50
278.4152745
51
279.0077046
0
ARC
8
bottom_labelLayer
10
257.2754695
20
106.5641352
40
5.7885943
50
278.9590813
51
280.5103253
0
ARC
8
bottom_labelLayer
10
257.651367
20
104.5471572
40
3.7368889
50
280.4847473
51
282.6269053
0
ARC
8
bottom_labelLayer
10
257.9808632
20
103.0833391
40
2.2364467
50
282.5875991
51
285.5794264
0
ARC
8
bottom_labelLayer
10
258.1466525
20
102.4736416
40
1.6046283
50
285.7240669
51
286.2571801
0
ARC
8
bottom_labelLayer
10
258.146037
20
101.0660383
40
1.0523992
50
287.9888923
51
295.3047629
0
ARC
8
bottom_labelLayer
10
257.8922131
20
101.8339788
40
1.861194
50
283.3069561
51
288.1197571
0
ARC
8
bottom_labelLayer
10
257.6240435
20
102.9526215
40
3.0115282
50
280.007099
51
283.3734286
0
ARC
8
bottom_labelLayer
10
257.4448143
20
103.9251996
40
4.0004614
50
279.186246
51
280.1144784
0
ARC
8
bottom_labelLayer
10
257.3345515
20
104.5523912
40
4.63722
50
275.5260099
51
279.2940002
0
ARC
8
bottom_labelLayer
10
257.4586413
20
103.2562518
40
3.3351549
50
270.893237
51
275.5483794
0
ARC
8
bottom_labelLayer
10
257.474232
20
102.6636788
40
2.7424183
50
270.0031494
51
270.7605472
0
ARC
8
bottom_labelLayer
10
257.4312081
20
102.715405
40
2.794478
50
253.7847875
51
270.885254
0
ARC
8
bottom_labelLayer
10
257.1001366
20
101.5863266
40
1.6178665
50
190.3817637
51
253.8772416
0
ARC
8
bottom_labelLayer
10
258.7876091
20
102.0425884
40
3.3630487
50
179.3551107
51
192.8477504
0
ARC
8
bottom_labelLayer
10
258.6491353
20
102.1120839
40
2.1544822
50
179.6416866
51
189.7505529
0
ARC
8
bottom_labelLayer
10
257.888548
20
101.9764246
40
1.3819155
50
189.5479184
51
205.7873815
0
ARC
8
bottom_labelLayer
10
257.5759881
20
101.8322923
40
1.0377981
50
206.1294056
51
221.408409
0
ARC
8
bottom_labelLayer
10
257.540944
20
101.8057017
40
0.9939322
50
221.5949245
51
262.3505174
0
ARC
8
bottom_labelLayer
10
257.6242965
20
102.2343379
40
1.4300775
50
261.3266514
51
270.1912627
0
LINE
8
bottom_labelLayer
10
263.2558281
20
100.9331746
11
263.2558281
21
100.1146199
0
LINE
8
bottom_labelLayer
10
260.0847343
20
102.0804402
11
260.0847343
21
106.282784
0
LINE
8
bottom_labelLayer
10
260.0847343
20
106.282784
11
259.0728203
21
106.282784
0
LINE
8
bottom_labelLayer
10
259.0728203
20
106.282784
11
259.0728203
21
106.798409
0
LINE
8
bottom_labelLayer
10
259.0728203
20
106.798409
11
260.0847343
21
107.2431355
0
LINE
8
bottom_labelLayer
10
260.0847343
20
107.2431355
11
260.5359062
21
108.7513386
0
LINE
8
bottom_labelLayer
10
260.5359062
20
108.7513386
11
261.1546562
21
108.7513386
0
LINE
8
bottom_labelLayer
10
261.1546562
20
108.7513386
11
261.1546562
21
107.1142293
0
LINE
8
bottom_labelLayer
10
261.1546562
20
107.1142293
11
263.2042656
21
107.1142293
0
LINE
8
bottom_labelLayer
10
263.2042656
20
107.1142293
11
263.2042656
21
106.282784
0
LINE
8
bottom_labelLayer
10
263.2042656
20
106.282784
11
261.1546562
21
106.282784
0
LINE
8
bottom_labelLayer
10
261.1546562
20
106.282784
11
261.1546562
21
102.1255574
0
ARC
8
bottom_labelLayer
10
262.2963674
20
104.3180462
40
3.5137855
50
269.8803761
51
278.302816
0
ARC
8
bottom_labelLayer
10
262.3297078
20
104.0455552
40
3.2393424
50
278.4152745
51
279.0077046
0
ARC
8
bottom_labelLayer
10
261.9354305
20
106.5641352
40
5.7885943
50
278.9590813
51
280.5103253
0
ARC
8
bottom_labelLayer
10
262.3113279
20
104.5471572
40
3.7368889
50
280.4847473
51
282.6269053
0
ARC
8
bottom_labelLayer
10
262.6408241
20
103.0833391
40
2.2364467
50
282.5875991
51
285.5794264
0
ARC
8
bottom_labelLayer
10
262.8066134
20
102.4736416
40
1.6046283
50
285.7240669
51
286.2571801
0
ARC
8
bottom_labelLayer
10
262.8059979
20
101.0660383
40
1.0523992
50
287.9888923
51
295.3047629
0
ARC
8
bottom_labelLayer
10
262.552174
20
101.8339788
40
1.861194
50
283.3069561
51
288.1197571
0
ARC
8
bottom_labelLayer
10
262.2840044
20
102.9526215
40
3.0115282
50
280.007099
51
283.3734286
0
ARC
8
bottom_labelLayer
10
262.1047752
20
103.9251996
40
4.0004614
50
279.186246
51
280.1144784
0
ARC
8
bottom_labelLayer
10
261.9945125
20
104.5523912
40
4.63722
50
275.5260099
51
279.2940002
0
ARC
8
bottom_labelLayer
10
262.1186022
20
103.2562518
40
3.3351549
50
270.893237
51
275.5483794
0
ARC
8
bottom_labelLayer
10
262.134193
20
102.6636788
40
2.7424183
50
270.0031494
51
270.7605472
0
ARC
8
bottom_labelLayer
10
262.0911691
20
102.715405
40
2.794478
50
253.7847875
51
270.885254
0
ARC
8
bottom_labelLayer
10
261.7600976
20
101.5863266
40
1.6178665
50
190.3817637
51
253.8772416
0
ARC
8
bottom_labelLayer
10
263.44757
20
102.0425884
40
3.3630487
50
179.3551107
51
192.8477504
0
ARC
8
bottom_labelLayer
10
263.3090963
20
102.1120839
40
2.1544822
50
179.6416866
51
189.7505529
0
ARC
8
bottom_labelLayer
10
262.5485089
20
101.9764246
40
1.3819155
50
189.5479184
51
205.7873815
0
ARC
8
bottom_labelLayer
10
262.235949
20
101.8322923
40
1.0377981
50
206.1294056
51
221.408409
0
ARC
8
bottom_labelLayer
10
262.200905
20
101.8057017
40
0.9939322
50
221.5949245
51
262.3505174
0
ARC
8
bottom_labelLayer
10
262.2842574
20
102.2343379
40
1.4300775
50
261.3266514
51
270.1912627
0
ARC
8
bottom_labelLayer
10
265.2381686
20
103.5513848
40
5.5265742
50
349.1761812
51
0.3862746
0
ARC
8
bottom_labelLayer
10
267.0988235
20
103.1804593
40
3.6293963
50
330.2507213
51
349.4116339
0
ARC
8
bottom_labelLayer
10
267.6714489
20
102.882832
40
2.9846667
50
318.1439746
51
329.7566222
0
ARC
8
bottom_labelLayer
10
267.7747988
20
102.8000075
40
2.8524329
50
278.8959152
51
317.9979111
0
ARC
8
bottom_labelLayer
10
267.5085044
20
104.0758571
40
4.154636
50
269.7503033
51
279.8033029
0
ARC
8
bottom_labelLayer
10
267.4653173
20
103.3569884
40
3.4358194
50
253.5437043
51
270.4182562
0
ARC
8
bottom_labelLayer
10
267.3509482
20
102.9145747
40
2.9791706
50
238.8115666
51
253.2428243
0
ARC
8
bottom_labelLayer
10
267.3140335
20
102.84034
40
2.8965569
50
207.794695
51
238.675806
0
ARC
8
bottom_labelLayer
10
267.8438163
20
103.1647941
40
3.5167372
50
205.6560725
51
208.4460699
0
ARC
8
bottom_labelLayer
10
268.2516544
20
103.3347156
40
3.9580062
50
188.9102518
51
205.3171589
0
ARC
8
bottom_labelLayer
10
269.6265293
20
103.5675751
40
5.3523833
50
179.7744697
51
189.0932914
0
ARC
8
bottom_labelLayer
10
269.8293482
20
103.6262702
40
5.5552882
50
169.2442999
51
180.3880768
0
ARC
8
bottom_labelLayer
10
267.9428135
20
103.9991697
40
3.6323333
50
150.7111465
51
169.4695478
0
ARC
8
bottom_labelLayer
10
267.3405721
20
104.3084438
40
2.9558836
50
138.1759407
51
150.2287542
0
ARC
8
bottom_labelLayer
10
267.2403969
20
104.3853165
40
2.8299872
50
99.1759308
51
137.9832764
0
ARC
8
bottom_labelLayer
10
267.5161257
20
103.0877012
40
4.1554796
50
89.7326506
51
100.0759692
0
ARC
8
bottom_labelLayer
10
267.5712328
20
103.6481045
40
3.5952084
50
73.5222701
51
90.5692234
0
ARC
8
bottom_labelLayer
10
267.7820715
20
104.4141344
40
2.8008772
50
41.1445621
51
73.2133952
0
ARC
8
bottom_labelLayer
10
267.3796001
20
104.0682149
40
3.3315634
50
13.5014283
51
41.0703498
0
ARC
8
bottom_labelLayer
10
265.8246552
20
103.6613057
40
4.9386447
50
1.1277157
51
13.8800066
0
ARC
8
bottom_labelLayer
10
264.4857907
20
103.5895384
40
6.2788265
50
359.9918326
51
1.5420332
0
ARC
8
bottom_labelLayer
10
270.8007895
20
103.5608397
40
5.4180796
50
179.7059773
51
187.9160682
0
ARC
8
bottom_labelLayer
10
268.8135978
20
103.2753833
40
3.4105224
50
187.7639376
51
200.0976932
0
ARC
8
bottom_labelLayer
10
267.7188715
20
102.8742737
40
2.2446263
50
200.084588
51
216.9131349
0
ARC
8
bottom_labelLayer
10
267.3191127
20
102.5888282
40
1.7536007
50
217.3009502
51
261.7098985
0
ARC
8
bottom_labelLayer
10
267.504694
20
103.4744106
40
2.6572765
50
260.5033347
51
270.2476534
0
ARC
8
bottom_labelLayer
10
267.5401148
20
103.3021925
40
2.4851488
50
269.4481605
51
284.7255968
0
ARC
8
bottom_labelLayer
10
267.7368501
20
102.5725706
40
1.7294905
50
284.5662222
51
322.6333881
0
ARC
8
bottom_labelLayer
10
267.2768739
20
102.904883
40
2.296799
50
323.0089264
51
342.6390566
0
ARC
8
bottom_labelLayer
10
265.9612431
20
103.3348699
40
3.680842
50
342.3615623
51
353.753754
0
ARC
8
bottom_labelLayer
10
264.0202749
20
103.5688296
40
5.6357833
50
353.5362928
51
0.2014353
0
ARC
8
bottom_labelLayer
10
264.3176421
20
103.6158919
40
5.3384508
50
359.7075496
51
7.8972654
0
ARC
8
bottom_labelLayer
10
266.2727195
20
103.8961689
40
3.363418
50
7.7440078
51
20.0690035
0
ARC
8
bottom_labelLayer
10
267.3621807
20
104.295959
40
2.2029209
50
20.0257125
51
37.4350451
0
ARC
8
bottom_labelLayer
10
267.723654
20
104.5524544
40
1.760055
50
37.9577734
51
80.400608
0
ARC
8
bottom_labelLayer
10
267.5182414
20
103.635918
40
2.6984698
50
79.3453612
51
90.3174804
0
ARC
8
bottom_labelLayer
10
267.4802072
20
103.7881582
40
2.5462929
50
89.4806145
51
103.8805048
0
ARC
8
bottom_labelLayer
10
267.2662521
20
104.6028983
40
1.7040615
50
103.4685193
51
142.311897
0
ARC
8
bottom_labelLayer
10
267.6821971
20
104.3103762
40
2.2121745
50
142.9025821
51
162.3749596
0
ARC
8
bottom_labelLayer
10
268.9928498
20
103.8736062
40
3.5936036
50
162.0653373
51
173.167465
0
ARC
8
bottom_labelLayer
10
271.0364551
20
103.6129556
40
5.6537263
50
173.0085991
51
180.2463852
0
LINE
8
bottom_labelLayer
10
282.7142265
20
100.0501668
11
281.6443047
21
100.0501668
0
LINE
8
bottom_labelLayer
10
281.6443047
20
100.0501668
11
281.6443047
21
104.6456746
0
LINE
8
bottom_labelLayer
10
278.2089531
20
103.994698
11
278.2089531
21
100.0501668
0
LINE
8
bottom_labelLayer
10
278.2089531
20
100.0501668
11
277.1390312
21
100.0501668
0
LINE
8
bottom_labelLayer
10
277.1390312
20
100.0501668
11
277.1390312
21
104.6456746
0
LINE
8
bottom_labelLayer
10
273.710125
20
103.7562215
11
273.710125
21
100.0501668
0
LINE
8
bottom_labelLayer
10
273.710125
20
100.0501668
11
272.6402031
21
100.0501668
0
LINE
8
bottom_labelLayer
10
272.6402031
20
100.0501668
11
272.6402031
21
107.1142293
0
LINE
8
bottom_labelLayer
10
272.6402031
20
107.1142293
11
273.5103203
21
107.1142293
0
LINE
8
bottom_labelLayer
10
273.5103203
20
107.1142293
11
273.6843437
21
106.1474324
0
LINE
8
bottom_labelLayer
10
273.6843437
20
106.1474324
11
273.7359062
21
106.1474324
0
LINE
8
bottom_labelLayer
10
277.9898125
20
106.0443074
11
278.041375
21
106.0443074
0
LINE
8
bottom_labelLayer
10
282.7142265
20
104.6585652
11
282.7142265
21
100.0501668
0
ARC
8
bottom_labelLayer
10
278.4880046
20
104.662486
40
3.1563449
50
359.694828
51
8.1471705
0
ARC
8
bottom_labelLayer
10
279.6505795
20
104.8345349
40
1.9811292
50
7.9864655
51
20.7949627
0
ARC
8
bottom_labelLayer
10
280.2932271
20
105.0807104
40
1.2929487
50
20.7070885
51
40.0217935
0
ARC
8
bottom_labelLayer
10
280.4342054
20
105.1729517
40
1.1258471
50
41.0407794
51
73.1792669
0
ARC
8
bottom_labelLayer
10
280.2302059
20
104.5559504
40
1.7755616
50
72.6395681
51
86.2568106
0
ARC
8
bottom_labelLayer
10
280.1648507
20
103.8506907
40
2.4836576
50
85.8144974
51
90.0684672
0
ARC
8
bottom_labelLayer
10
280.1408435
20
103.5813431
40
2.7530838
50
89.5621378
51
101.2961462
0
ARC
8
bottom_labelLayer
10
279.9334904
20
104.5740202
40
1.7390432
50
101.0032318
51
121.7840503
0
ARC
8
bottom_labelLayer
10
279.775851
20
104.8554514
40
1.4168555
50
122.3597284
51
140.2884066
0
ARC
8
bottom_labelLayer
10
280.0594634
20
104.6474981
40
1.7680238
50
140.9765546
51
161.1699501
0
ARC
8
bottom_labelLayer
10
281.1279029
20
104.2672664
40
2.902044
50
160.8732103
51
172.5272154
0
ARC
8
bottom_labelLayer
10
282.9131988
20
104.0207055
40
4.7042595
50
172.3776543
51
180.1829642
0
ARC
8
bottom_labelLayer
10
284.2354716
20
103.994595
40
6.0265186
50
179.8945804
51
179.9990207
0
ARC
8
bottom_labelLayer
10
273.9827311
20
104.662486
40
3.1563449
50
359.694828
51
8.1471705
0
ARC
8
bottom_labelLayer
10
275.145306
20
104.8345349
40
1.9811292
50
7.9864655
51
20.7949627
0
ARC
8
bottom_labelLayer
10
275.7879537
20
105.0807104
40
1.2929487
50
20.7070885
51
40.0217935
0
ARC
8
bottom_labelLayer
10
275.9318632
20
105.1749764
40
1.122307
50
41.0610722
51
72.8993636
0
ARC
8
bottom_labelLayer
10
275.7240004
20
104.5561468
40
1.7749789
50
72.3601
51
85.9562095
0
ARC
8
bottom_labelLayer
10
275.6536363
20
103.8289318
40
2.5054169
50
85.5238363
51
90.0794059
0
ARC
8
bottom_labelLayer
10
275.6296338
20
103.6770449
40
2.6573809
50
89.557343
51
101.483225
0
ARC
8
bottom_labelLayer
10
275.4256692
20
104.6326606
40
1.680316
50
101.1546222
51
123.0655804
0
ARC
8
bottom_labelLayer
10
275.2870275
20
104.8741685
40
1.402365
50
123.7020649
51
142.3022157
0
ARC
8
bottom_labelLayer
10
275.6117899
20
104.6538457
40
1.794223
50
143.0769857
51
161.3913941
0
ARC
8
bottom_labelLayer
10
276.9208816
20
104.1915033
40
3.182476
50
161.023435
51
171.4469212
0
ARC
8
bottom_labelLayer
10
279.0880719
20
103.8520182
40
5.3760707
50
171.3041856
51
178.3501536
0
ARC
8
bottom_labelLayer
10
281.1589571
20
103.759519
40
7.4488329
50
178.0975701
51
180.0253644
0
ARC
8
bottom_labelLayer
10
275.5484989
20
105.0815387
40
2.1027652
50
117.1209641
51
149.542376
0
ARC
8
bottom_labelLayer
10
275.7631043
20
104.7001028
40
2.5401506
50
93.8343387
51
117.5072005
0
ARC
8
bottom_labelLayer
10
275.8223774
20
104.1750742
40
3.0680618
50
89.9661974
51
94.2831158
0
ARC
8
bottom_labelLayer
10
275.8578914
20
103.7403611
40
3.5029366
50
77.5572322
51
90.5512866
0
ARC
8
bottom_labelLayer
10
276.1829249
20
105.1383944
40
2.0677708
50
52.7027212
51
78.0053673
0
ARC
8
bottom_labelLayer
10
276.2987306
20
105.3538531
40
1.8266048
50
22.2097746
51
51.4970705
0
ARC
8
bottom_labelLayer
10
279.9795851
20
104.9335147
40
2.233947
50
119.4041736
51
150.1828787
0
ARC
8
bottom_labelLayer
10
280.2273937
20
104.556658
40
2.6840996
50
118.2584138
51
120.0629601
0
ARC
8
bottom_labelLayer
10
280.226635
20
104.5292105
40
2.7079512
50
95.8635138
51
117.9693196
0
ARC
8
bottom_labelLayer
10
280.3182827
20
103.8665292
40
3.3766097
50
89.9196911
51
96.2617558
0
ARC
8
bottom_labelLayer
10
280.3477046
20
103.5241022
40
3.7191153
50
79.9361089
51
90.3803556
0
ARC
8
bottom_labelLayer
10
280.5955142
20
104.8662175
40
2.3543657
50
62.972324
51
80.1664996
0
ARC
8
bottom_labelLayer
10
280.8545683
20
105.3976965
40
1.7632443
50
44.2289765
51
62.6229059
0
ARC
8
bottom_labelLayer
10
280.7775205
20
105.3636584
40
1.8424301
50
19.56119
51
43.3161284
0
ARC
8
bottom_labelLayer
10
279.6585323
20
104.9433647
40
3.0376305
50
7.5041771
51
19.964539
0
ARC
8
bottom_labelLayer
10
277.8069088
20
104.6833404
40
4.9073803
50
359.710738
51
7.6907287
0
ENDSEC
0
EOF